<svg id="Group_128" data-name="Group 128" xmlns="http://www.w3.org/2000/svg" width="32" height="33.226" viewBox="0 0 32 33.226">
  <rect id="Rectangle_57" data-name="Rectangle 57" width="32" height="32" transform="translate(0 1.226)" fill="none"/>
  <path id="Path_436" data-name="Path 436" d="M306.428,259.018v-5.389a.994.994,0,0,0-.3-.711l-4.312-4.27.218-.176a10.83,10.83,0,0,1,2.994-1.7,1,1,0,0,0,.625-.574,13.375,13.375,0,0,1,2.135-3.569A11.585,11.585,0,0,1,311,240.371a1,1,0,0,0,.325-1.63,14.3,14.3,0,0,0-2.684-2.115,1,1,0,0,0-1.04,1.709,11.941,11.941,0,0,1,1.008.685l.284.215-.3.194a13.761,13.761,0,0,0-2.215,1.786,11.44,11.44,0,0,0-1.844,2.683l-.149.283-.239-.213a20.38,20.38,0,0,0-9.255-5.02l-.608-.129.528-.328a12.229,12.229,0,0,1,8.266-1.773,1,1,0,1,0,.279-1.981,14.342,14.342,0,0,0-6.543.618,15.117,15.117,0,0,0-4.981,2.857l-.17.146-.989-.925a1,1,0,0,0-1.366,1.46l.948.887-.154.182a14.5,14.5,0,0,0-3.484,9.166,13.94,13.94,0,0,0,4.138,10.181,1,1,0,0,0,1.637-.34,10.455,10.455,0,0,1,2.172-3.11,14.542,14.542,0,0,1,3.663-2.222,1,1,0,0,0,.558-.613,10.936,10.936,0,0,1,1.474-2.7l.172-.232,4,3.958v4.936l-5.413,5.413a1,1,0,0,0,.708,1.707,1.009,1.009,0,0,0,.707-.293l4-4V265.1a1,1,0,0,0,2,0v-3.256l3.963,3.963a1.008,1.008,0,0,0,.707.293,1,1,0,0,0,.707-1.707Zm-10.617-6.425a11.9,11.9,0,0,0-2.662,1.851,13.158,13.158,0,0,0-1.714,2.121l-.194.3-.215-.285a12.143,12.143,0,0,1-.6-13.646l.325-.54.133.616a20.422,20.422,0,0,0,5,9.2l.211.235Zm3.993-4.8a12.606,12.606,0,0,0-2.149,2.9l-.171.313-.237-.269a19.2,19.2,0,0,1-4.188-7.263,12,12,0,0,1-.456-2.528l-.018-.284.283.018a12.017,12.017,0,0,1,2.528.457,19.2,19.2,0,0,1,7.235,4.163l.267.234-.31.173A12.567,12.567,0,0,0,299.8,247.79Z" transform="translate(-283.615 -234.601)" fill="#fff"/>
</svg>
