<svg id="Group_131" data-name="Group 131" xmlns="http://www.w3.org/2000/svg" width="32" height="32.23" viewBox="0 0 32 32.23">
  <rect id="Rectangle_57" data-name="Rectangle 57" width="32" height="32" transform="translate(0 0.23)" fill="none"/>
  <g id="Group_132" data-name="Group 132" transform="translate(0)">
    <g id="Group_129" data-name="Group 129">
      <path id="Path_437" data-name="Path 437" d="M214.544,253.166a1,1,0,1,0,1.639-1.144,7.563,7.563,0,1,0-9.375,11.191,1.022,1.022,0,0,0,1.327-.489,1,1,0,0,0-.488-1.328,5.563,5.563,0,1,1,6.9-8.23Z" transform="translate(-194.165 -240.531)" fill="#fff"/>
      <path id="Path_438" data-name="Path 438" d="M218.352,255.843a7.312,7.312,0,1,0,7.313,7.313A7.321,7.321,0,0,0,218.352,255.843Zm0,12.625a5.313,5.313,0,1,1,5.313-5.312A5.317,5.317,0,0,1,218.352,268.468Z" transform="translate(-194.165 -240.531)" fill="#fff"/>
      <path id="Path_439" data-name="Path 439" d="M220.165,262.156h-.813v-1.563a1,1,0,0,0-2,0v2.563a1,1,0,0,0,1,1h1.813a1,1,0,0,0,0-2Z" transform="translate(-194.165 -240.531)" fill="#fff"/>
      <path id="Path_440" data-name="Path 440" d="M220.915,245.031h-1.9a1.5,1.5,0,0,1-1.419-1.016l-.378-1.112a3.5,3.5,0,0,0-3.314-2.372H205.92a3.509,3.509,0,0,0-3.291,2.311l-.433,1.2a1.506,1.506,0,0,1-1.411.99h-1.87a4.756,4.756,0,0,0-4.75,4.75v14.375a4.756,4.756,0,0,0,4.75,4.75h9.062a1,1,0,0,0,0-2h-9.062a2.753,2.753,0,0,1-2.75-2.75V249.781a2.753,2.753,0,0,1,2.75-2.75h1.87a3.508,3.508,0,0,0,3.291-2.311l.433-1.2a1.5,1.5,0,0,1,1.411-.991h7.986a1.5,1.5,0,0,1,1.419,1.017l.379,1.111a3.5,3.5,0,0,0,3.313,2.372h1.9a2.754,2.754,0,0,1,2.75,2.75v4.125a1,1,0,0,0,2,0v-4.125A4.756,4.756,0,0,0,220.915,245.031Z" transform="translate(-194.165 -240.531)" fill="#fff"/>
    </g>
  </g>
</svg>
