<svg id="Group_131" data-name="Group 131" xmlns="http://www.w3.org/2000/svg" width="32" height="33.23" viewBox="0 0 32 33.23">
  <rect id="Rectangle_57" data-name="Rectangle 57" width="32" height="32" transform="translate(0 1.23)" fill="none"/>
  <g id="Group_139" data-name="Group 139" transform="translate(0)">
    <path id="Path_441" data-name="Path 441" d="M201.082,260.194a1.006,1.006,0,0,0-.425-.253l-4.951-1.462a.978.978,0,0,0-.283-.041,1,1,0,0,0-.962,1.274l1.429,5.013a.989.989,0,0,0,.254.432l4.429,4.443a3.5,3.5,0,0,0,4.951-4.948Zm-.93,6.151-2.409-2.417-.86-3.017,3.008.922,2.349,2.358Zm3.956,1.84a1.5,1.5,0,0,1-2.12,0l-.424-.426,2.088-2.154.456.457a1.5,1.5,0,0,1,0,2.121Z" transform="translate(-175.048 -241.375)" fill="#fff"/>
    <path id="Path_442" data-name="Path 442" d="M183.548,245.875a3.5,3.5,0,1,0,3.5,3.5A3.5,3.5,0,0,0,183.548,245.875Zm0,5a1.5,1.5,0,1,1,1.5-1.5A1.5,1.5,0,0,1,183.548,250.875Z" transform="translate(-175.048 -241.375)" fill="#fff"/>
    <path id="Path_443" data-name="Path 443" d="M201.8,241.375h-22a4.756,4.756,0,0,0-4.75,4.75v17.5a4.756,4.756,0,0,0,4.75,4.75h13.187a1,1,0,0,0,0-2h-.851l-3.069-3.981.121-.152,9.262-11.78,6.1,7.277v1.573a1,1,0,0,0,2,0V246.125A4.756,4.756,0,0,0,201.8,241.375Zm2.75,13.251-5.359-6.393a.937.937,0,0,0-.783-.358,1,1,0,0,0-.769.382l-9.831,12.5-3.466-4.5a1.037,1.037,0,0,0-1.585,0L180,259.841a1,1,0,1,0,1.585,1.22l1.96-2.548,6.059,7.862H179.8a2.753,2.753,0,0,1-2.75-2.75v-17.5a2.753,2.753,0,0,1,2.75-2.75h22a2.754,2.754,0,0,1,2.75,2.75Z" transform="translate(-175.048 -241.375)" fill="#fff"/>
  </g>
</svg>
