<svg id="Group_131" data-name="Group 131" xmlns="http://www.w3.org/2000/svg" width="32" height="33.34" viewBox="0 0 32 33.34">
  <rect id="Rectangle_57" data-name="Rectangle 57" width="32" height="32" transform="translate(0 1.34)" fill="none"/>
  <g id="Group_146" data-name="Group 146" transform="translate(1)">
    <path id="Path_452" data-name="Path 452" d="M268.23,240.125h-21.8a2.194,2.194,0,0,0-2.192,2.192V243.4a2.676,2.676,0,0,0,0,5.351v1.268a2.676,2.676,0,0,0,0,5.352v1.268a2.676,2.676,0,0,0,0,5.352v1.268a2.676,2.676,0,0,0,0,5.351v1.078a2.195,2.195,0,0,0,2.192,2.192h21.8a2.2,2.2,0,0,0,2.192-2.192V242.317A2.195,2.195,0,0,0,268.23,240.125Zm0,29.789H248.867V242.086H268.23a.232.232,0,0,1,.231.231v27.366A.232.232,0,0,1,268.23,269.914Zm-22.027-27.6a.232.232,0,0,1,.231-.231h.472v1.406a2.649,2.649,0,0,0-.7-.1Zm0,3.039a.715.715,0,0,1,.7.714v4.042a2.651,2.651,0,0,0-.7-.1Zm0,6.619a.716.716,0,0,1,.7.715v4.042a2.693,2.693,0,0,0-.7-.1Zm0,6.62a.716.716,0,0,1,.7.715v4.041a2.691,2.691,0,0,0-.7-.1Zm0,6.619a.716.716,0,0,1,.7.715v3.985h-.472a.232.232,0,0,1-.231-.231Zm-1.961,0v1.43a.715.715,0,0,1,0-1.43Zm0-6.619v1.43a.715.715,0,0,1,0-1.43Zm0-6.62v1.43a.715.715,0,0,1,0-1.43Zm0-6.619v1.429a.715.715,0,0,1,0-1.429Z" transform="translate(-241.578 -240.125)" fill="#fff"/>
    <path id="Path_453" data-name="Path 453" d="M265.456,260.457a8.128,8.128,0,0,0-3.569-2.955,4.463,4.463,0,1,0-6.391-.019,8.107,8.107,0,0,0-3.625,2.991,1.034,1.034,0,0,0,.284,1.436,1.006,1.006,0,0,0,.567.172,1.083,1.083,0,0,0,.21-.021,1.037,1.037,0,0,0,.661-.435,6.109,6.109,0,0,1,10.143-.012,1.036,1.036,0,0,0,1.877-.379A1.026,1.026,0,0,0,265.456,260.457Zm-4.364-6.076a2.391,2.391,0,1,1-2.391-2.391A2.394,2.394,0,0,1,261.092,254.381Z" transform="translate(-241.578 -240.125)" fill="#fff"/>
  </g>
</svg>
