<svg id="Group_131" data-name="Group 131" xmlns="http://www.w3.org/2000/svg" width="32" height="33.23" viewBox="0 0 32 33.23">
  <rect id="Rectangle_57" data-name="Rectangle 57" width="32" height="32" transform="translate(0 1.23)" fill="none"/>
  <g id="Group_141" data-name="Group 141" transform="translate(0)">
    <path id="Path_444" data-name="Path 444" d="M215.473,252.8l-.417-.149.342-.28a6.812,6.812,0,1,0-8.638-.027l.341.282-.417.147a13,13,0,0,0-6.544,5.077,1,1,0,0,0,.275,1.387,1.02,1.02,0,0,0,1.387-.274,11.121,11.121,0,0,1,18.464-.023,1,1,0,0,0,1.66-1.116A13.022,13.022,0,0,0,215.473,252.8Zm-4.377-.894a4.813,4.813,0,1,1,4.812-4.812A4.817,4.817,0,0,1,211.1,251.906Z" transform="translate(-195.095 -240.281)" fill="#fff"/>
    <path id="Path_445" data-name="Path 445" d="M216.081,262.164l-1.864,1.345a.782.782,0,0,0-.287.878l.75,2.175a.786.786,0,0,1,.04.282.824.824,0,0,1-1.3.6l-1.863-1.344a.8.8,0,0,0-.93,0l-1.864,1.344a.824.824,0,0,1-1.3-.6.811.811,0,0,1,.041-.282l.75-2.175a.781.781,0,0,0-.288-.878l-1.863-1.345a.843.843,0,0,1,.465-1.508h2.3a.721.721,0,0,0,.753-.455l.711-2.189a.793.793,0,0,1,1.505,0l.712,2.189a.72.72,0,0,0,.752.455h2.3A.843.843,0,0,1,216.081,262.164Z" transform="translate(-195.095 -240.281)" fill="#fff"/>
    <path id="Path_446" data-name="Path 446" d="M226.768,266.539l-1.863,1.345a.781.781,0,0,0-.288.878l.751,2.175a.808.808,0,0,1,.04.282.824.824,0,0,1-1.3.6l-1.864-1.344a.8.8,0,0,0-.93,0l-1.863,1.344a.823.823,0,0,1-1.3-.6.788.788,0,0,1,.041-.282l.749-2.175a.782.782,0,0,0-.287-.878l-1.864-1.345a.843.843,0,0,1,.465-1.508h2.3a.72.72,0,0,0,.752-.455l.712-2.189a.793.793,0,0,1,1.5,0l.711,2.189a.721.721,0,0,0,.753.455h2.3A.843.843,0,0,1,226.768,266.539Z" transform="translate(-195.095 -240.281)" fill="#fff"/>
    <path id="Path_447" data-name="Path 447" d="M205.393,266.539l-1.863,1.345a.781.781,0,0,0-.288.878l.751,2.175a.808.808,0,0,1,.04.282.824.824,0,0,1-1.3.6l-1.864-1.344a.8.8,0,0,0-.93,0l-1.863,1.344a.823.823,0,0,1-1.3-.6.788.788,0,0,1,.041-.282l.749-2.175a.782.782,0,0,0-.287-.878l-1.864-1.345a.843.843,0,0,1,.465-1.508h2.3a.72.72,0,0,0,.752-.455l.712-2.189a.793.793,0,0,1,1.5,0l.711,2.189a.721.721,0,0,0,.753.455h2.3A.843.843,0,0,1,205.393,266.539Z" transform="translate(-195.095 -240.281)" fill="#fff"/>
  </g>
</svg>
