<svg id="Group_131" data-name="Group 131" xmlns="http://www.w3.org/2000/svg" width="32" height="32.845" viewBox="0 0 32 32.845">
  <rect id="Rectangle_57" data-name="Rectangle 57" width="32" height="32" transform="translate(0 0.845)" fill="none"/>
  <g id="Group_143" data-name="Group 143" transform="translate(1)">
    <path id="Path_448" data-name="Path 448" d="M187.393,249.6a4.319,4.319,0,0,0-4.28,4.889l1.8,13.519a4.332,4.332,0,0,0,4.28,3.747h18.334a4.332,4.332,0,0,0,4.28-3.747l1.8-13.519a4.321,4.321,0,0,0-4.281-4.889ZM211.5,254.2l-1.8,13.517a2.2,2.2,0,0,1-2.171,1.9H189.2a2.2,2.2,0,0,1-2.171-1.9l-1.8-13.517a2.189,2.189,0,0,1,2.171-2.48H209.33a2.188,2.188,0,0,1,2.172,2.48Z" transform="translate(-183.075 -240.25)" fill="#fff"/>
    <path id="Path_449" data-name="Path 449" d="M187.682,247.051h21.36a1.064,1.064,0,1,0,0-2.128h-21.36a1.064,1.064,0,1,0,0,2.128Z" transform="translate(-183.075 -240.25)" fill="#fff"/>
    <path id="Path_450" data-name="Path 450" d="M189.684,242.379h17.355a1.064,1.064,0,1,0,0-2.129H189.684a1.064,1.064,0,0,0,0,2.129Z" transform="translate(-183.075 -240.25)" fill="#fff"/>
    <path id="Path_451" data-name="Path 451" d="M194.394,266.1a5.617,5.617,0,0,1,7.935,0,1.067,1.067,0,0,0,1.505,0,1.061,1.061,0,0,0,0-1.505,7.693,7.693,0,0,0-1.951-1.42l-.273-.138.191-.24a4.4,4.4,0,1,0-6.879,0l.192.239-.273.139a7.715,7.715,0,0,0-1.952,1.42,1.064,1.064,0,1,0,1.5,1.505Zm3.968-8.319a2.273,2.273,0,1,1-2.274,2.273A2.275,2.275,0,0,1,198.362,257.779Z" transform="translate(-183.075 -240.25)" fill="#fff"/>
  </g>
</svg>
