<svg id="Group_131" data-name="Group 131" xmlns="http://www.w3.org/2000/svg" width="32" height="32.845" viewBox="0 0 32 32.845">
  <rect id="Rectangle_57" data-name="Rectangle 57" width="32" height="32" transform="translate(0 0.845)" fill="none"/>
  <g id="Group_150" data-name="Group 150" transform="translate(6)">
    <path id="Path_456" data-name="Path 456" d="M259.824,249.046c-1.677,0-4.017-.5-4.017-1.3a.876.876,0,0,0-1.751,0c0,.133-.055,1.3-1.842,1.3a.876.876,0,0,0-.876.875v1.088a4.681,4.681,0,0,0,9.361,0v-1.087A.875.875,0,0,0,259.824,249.046Zm-.874,1.715v.247a2.931,2.931,0,0,1-5.861,0v-.272a3.254,3.254,0,0,0,1.993-1.091A8.067,8.067,0,0,0,258.95,250.761Z" transform="translate(-245.576 -240.519)" fill="#fff"/>
    <path id="Path_457" data-name="Path 457" d="M260.315,260.046l1.369-1.369-1.312-1.313-2.026,2.025a.929.929,0,0,0,0,1.312l.484.485-2.812,2.411-2.811-2.41.484-.484a.928.928,0,0,0,0-1.313l-2.024-2.025-1.313,1.313,1.369,1.369-.586.589a.928.928,0,0,0,.1,1.309l3.852,3.3v5.274h1.857v-5.274l3.9-3.351a.928.928,0,0,0,0-1.313Z" transform="translate(-245.576 -240.519)" fill="#fff"/>
    <path id="Path_458" data-name="Path 458" d="M261,242.49a7.247,7.247,0,0,0-5.468-1.953,7.431,7.431,0,0,0-6.795,7.483v6.736a2.23,2.23,0,0,0,2.228,2.227h3.492v-1.927h-3.492a.3.3,0,0,1-.3-.3v-6.741a5.5,5.5,0,0,1,5-5.555,5.383,5.383,0,0,1,5.714,5.344v6.952a.3.3,0,0,1-.3.3h-3.491v1.927h3.491a2.23,2.23,0,0,0,2.228-2.227V247.8A7.335,7.335,0,0,0,261,242.49Z" transform="translate(-245.576 -240.519)" fill="#fff"/>
    <path id="Path_459" data-name="Path 459" d="M263.149,258.4l-4.271-2.215v-1.759h-1.926v2.345a.96.96,0,0,0,.519.855l4.786,2.481a4.263,4.263,0,0,1,2.278,3.836v5.65h-13.24v-5.055h-1.928v5.055H247.5v-5.654a4.26,4.26,0,0,1,2.275-3.831l4.789-2.482a.961.961,0,0,0,.52-.855v-2.345h-1.928v1.759l-4.27,2.215a6.168,6.168,0,0,0-3.313,5.543v6.614a.965.965,0,0,0,.963.964H265.5a.964.964,0,0,0,.962-.964v-6.61A6.167,6.167,0,0,0,263.149,258.4Z" transform="translate(-245.576 -240.519)" fill="#fff"/>
    <rect id="Rectangle_58" data-name="Rectangle 58" width="1.927" height="6.351" transform="translate(15.167 24.016)" fill="#fff"/>
  </g>
</svg>
