<svg id="Group_131" data-name="Group 131" xmlns="http://www.w3.org/2000/svg" width="32" height="33.345" viewBox="0 0 32 33.345">
  <rect id="Rectangle_57" data-name="Rectangle 57" width="32" height="32" transform="translate(0 1.345)" fill="none"/>
  <g id="Group_148" data-name="Group 148" transform="translate(0.5)">
    <path id="Path_454" data-name="Path 454" d="M270.592,240.4H241.408a1.009,1.009,0,0,0-1.008,1.008v23.347a1.009,1.009,0,0,0,1.008,1.008H251.1v3.821H249.19a1.007,1.007,0,1,0,0,2.015h13.62a1.007,1.007,0,0,0,0-2.015H260.9v-3.821h9.694a1.01,1.01,0,0,0,1.008-1.008V241.408A1.01,1.01,0,0,0,270.592,240.4Zm-11.708,25.363v3.821h-5.767v-3.821Zm10.7-23.346v21.331H242.417V242.417Z" transform="translate(-240.4 -240.4)" fill="#fff"/>
    <path id="Path_455" data-name="Path 455" d="M251.136,259.926h4.12a1,1,0,0,0,.713-.3l7.553-7.552a1.007,1.007,0,0,0,0-1.426l-4.12-4.12a1.01,1.01,0,0,0-1.425,0l-7.554,7.554a1,1,0,0,0-.295.712v4.121A1.009,1.009,0,0,0,251.136,259.926Zm1.009-2.015v-2.7l6.544-6.545,2.7,2.694-6.546,6.546Z" transform="translate(-240.4 -240.4)" fill="#fff"/>
  </g>
</svg>
