<svg xmlns="http://www.w3.org/2000/svg" width="64" height="54" viewBox="0 0 64 54">
  <g id="Group_223" data-name="Group 223" transform="translate(-111.283 -67.01)">
    <g id="Group_218" data-name="Group 218" transform="translate(148.555 85.7)">
      <g id="Path_414" data-name="Path 414" transform="translate(1.956)">
        <path id="Path_469" data-name="Path 469" d="M157.863,97.093a4.887,4.887,0,1,1,4.886-4.887A4.887,4.887,0,0,1,157.863,97.093Zm0-7.819a2.932,2.932,0,1,0,2.932,2.932A2.932,2.932,0,0,0,157.863,89.274Z" transform="translate(-151.977 -86.319)" fill="#fa0"/>
        <path id="Path_470" data-name="Path 470" d="M157.864,98.093h0a5.887,5.887,0,1,1,5.886-5.887A5.893,5.893,0,0,1,157.863,98.093Zm0-7.819a1.932,1.932,0,1,0,1.933,1.932A1.934,1.934,0,0,0,157.862,90.274Z" transform="translate(-151.977 -86.319)" fill="#fa0"/>
      </g>
      <g id="Path_415" data-name="Path 415" transform="translate(0 7.779)">
        <path id="Path_471" data-name="Path 471" d="M164.7,101.938h-1.955a4.886,4.886,0,0,0-9.773,0h-1.954a6.841,6.841,0,1,1,13.682,0Z" transform="translate(-150.021 -94.098)" fill="#fa0"/>
        <path id="Path_472" data-name="Path 472" d="M165.7,102.938h-3.955v-1a3.886,3.886,0,1,0-7.772,0v1h-3.956v-1a7.841,7.841,0,0,1,15.683,0Z" transform="translate(-150.021 -94.098)" fill="#fa0"/>
      </g>
    </g>
    <g id="Group_219" data-name="Group 219" transform="translate(122.715 85.7)">
      <g id="Path_414-2" data-name="Path 414" transform="translate(1.955)">
        <path id="Path_473" data-name="Path 473" d="M131.006,97.093a4.887,4.887,0,1,1,4.886-4.887A4.886,4.886,0,0,1,131.006,97.093Zm0-7.819a2.932,2.932,0,1,0,2.932,2.932A2.932,2.932,0,0,0,131.006,89.274Z" transform="translate(-125.12 -86.319)" fill="#fa0"/>
        <path id="Path_474" data-name="Path 474" d="M131.007,98.093h0a5.887,5.887,0,1,1,5.887-5.887A5.893,5.893,0,0,1,131.006,98.093Zm0-7.819a1.932,1.932,0,1,0,1.932,1.932A1.934,1.934,0,0,0,131.005,90.274Z" transform="translate(-125.12 -86.319)" fill="#fa0"/>
      </g>
      <g id="Path_415-2" data-name="Path 415" transform="translate(0 7.779)">
        <path id="Path_475" data-name="Path 475" d="M137.847,101.938h-1.955a4.886,4.886,0,1,0-9.772,0h-1.955a6.841,6.841,0,1,1,13.682,0Z" transform="translate(-123.165 -94.098)" fill="#fa0"/>
        <path id="Path_476" data-name="Path 476" d="M138.847,102.938h-3.954v-1a3.887,3.887,0,0,0-7.773,0v1h-3.955v-1a7.841,7.841,0,0,1,15.682,0Z" transform="translate(-123.165 -94.098)" fill="#fa0"/>
      </g>
    </g>
    <g id="Group_220" data-name="Group 220" transform="translate(111.283 67.01)">
      <path id="Path_477" data-name="Path 477" d="M173.325,73.27H170.1V68.989a1.966,1.966,0,0,0-.569-1.4,1.94,1.94,0,0,0-1.386-.582l-2.869.237a63.34,63.34,0,0,0-19.33,4.743l-2.667,1.116L140.62,72a63.372,63.372,0,0,0-19.329-4.745l-2.706-.233a1.963,1.963,0,0,0-2.115,1.79l-.008,4.463h-3.22a1.968,1.968,0,0,0-1.959,1.973v43.8a1.967,1.967,0,0,0,1.959,1.971h60.083a1.966,1.966,0,0,0,1.958-1.971v-43.8A1.967,1.967,0,0,0,173.325,73.27Zm-30.042,43.79-1.958-.98-.631-.266a63.294,63.294,0,0,0-19.32-4.761l-.993-.084V71.131l.583.049a59.485,59.485,0,0,1,18.151,4.455l2.211.924,1.958,1.036,1.959-1.036,2.215-.926a59.45,59.45,0,0,1,18.148-4.453l.581-.049v39.835l-.855.07a63.77,63.77,0,0,0-19.339,4.733l-.751.314Zm11.265-.089c.4-.115.811-.223,1.292-.344.3-.075.591-.151.9-.223.421-.1.848-.195,1.276-.285l.183-.04c.245-.054.491-.109.739-.158.45-.088.9-.167,1.353-.247l.872-.153c.5-.08,1.008-.149,1.512-.215l.727-.1q1.125-.136,2.255-.233l2.653-.217a1.975,1.975,0,0,0,1.8-1.969V77.214h1.262v39.852H154.207Zm-36.293-2.222,2.789.24q1.122.1,2.246.235c.139.016.277.036.415.056l.346.049c.489.066.98.133,1.468.211.22.035.441.075.661.115l.217.039c.448.079.894.158,1.339.246q.412.084.823.175l.1.021c.429.094.859.188,1.285.289.306.074.619.153.926.232.421.109.843.221,1.263.338l.258.073H115.2V77.214h1.262V112.78A1.977,1.977,0,0,0,118.255,114.749Z" transform="translate(-111.283 -67.01)" fill="#fa0"/>
    </g>
    <g id="Group_222" data-name="Group 222" transform="translate(141.283 80.272)">
      <g id="Group_221" data-name="Group 221">
        <rect id="Rectangle_85" data-name="Rectangle 85" width="4" height="27.476" fill="#fa0"/>
      </g>
    </g>
  </g>
</svg>
