<svg id="Group_244" data-name="Group 244" xmlns="http://www.w3.org/2000/svg" width="64" height="54" viewBox="0 0 64 54">
  <g id="Group_216" data-name="Group 216" transform="translate(18 12.042)">
    <path id="Path_414" data-name="Path 414" d="M160.3,93.945a10,10,0,1,1,10-10A10,10,0,0,1,160.3,93.945Zm0-16a6,6,0,1,0,6,6A6,6,0,0,0,160.3,77.945Z" transform="translate(-146.3 -73.945)" fill="#fa0"/>
    <path id="Path_415" data-name="Path 415" d="M174.3,103.861h-4a10,10,0,1,0-20,0h-4a14,14,0,1,1,28,0Z" transform="translate(-146.3 -73.945)" fill="#fa0"/>
  </g>
  <path id="Path_468" data-name="Path 468" d="M189.391,67.544h-3.22V63.263a1.965,1.965,0,0,0-.569-1.4,1.944,1.944,0,0,0-1.387-.582l-2.869.237a63.341,63.341,0,0,0-19.329,4.743l-2.667,1.116-2.663-1.112a63.371,63.371,0,0,0-19.33-4.745l-2.706-.233a1.963,1.963,0,0,0-2.114,1.79l-.008,4.463h-3.22a1.967,1.967,0,0,0-1.959,1.973v43.8a1.966,1.966,0,0,0,1.959,1.971h60.082a1.966,1.966,0,0,0,1.959-1.971v-43.8A1.967,1.967,0,0,0,189.391,67.544Zm-30.041,43.79-1.959-.981-.63-.265a63.293,63.293,0,0,0-19.321-4.761l-.993-.084V65.4l.582.049a59.485,59.485,0,0,1,18.152,4.455l2.21.924,1.959,1.036,1.958-1.036,2.216-.926a59.451,59.451,0,0,1,18.147-4.453l.582-.049v39.835l-.855.07a63.763,63.763,0,0,0-19.339,4.733l-.752.314Zm11.264-.089c.4-.115.811-.223,1.293-.344.294-.075.591-.151.894-.223.422-.1.848-.195,1.277-.285l.182-.04c.245-.054.491-.109.74-.158.45-.088.9-.167,1.353-.247l.872-.153c.5-.08,1.007-.149,1.512-.215l.727-.1c.749-.091,1.5-.169,2.255-.233l2.652-.217a1.976,1.976,0,0,0,1.8-1.969V71.488h1.262V111.34H170.274Zm-36.293-2.222,2.789.24c.749.064,1.5.142,2.247.235.138.016.277.036.415.056l.346.049c.489.066.98.133,1.468.211.219.035.441.075.66.115l.218.039c.448.079.894.158,1.339.246q.411.084.823.175l.094.021c.43.094.86.188,1.286.289.306.074.618.153.926.232.421.109.843.221,1.263.338l.259.073H131.267V71.488h1.263v35.566A1.976,1.976,0,0,0,134.321,109.023Z" transform="translate(-127.35 -61.284)" fill="#fa0"/>
</svg>
