<svg xmlns="http://www.w3.org/2000/svg" width="64" height="54" viewBox="0 0 64 54">
  <g id="Group_243" data-name="Group 243" transform="translate(-185.087 -67.01)">
    <g id="Group_224" data-name="Group 224" transform="translate(222.36 75.161)">
      <g id="Path_414" data-name="Path 414" transform="translate(1.955)">
        <path id="Path_478" data-name="Path 478" d="M231.667,86.2a4.887,4.887,0,1,1,4.886-4.886A4.886,4.886,0,0,1,231.667,86.2Zm0-7.818a2.931,2.931,0,1,0,2.932,2.932A2.932,2.932,0,0,0,231.667,78.386Z" transform="translate(-225.781 -75.431)" fill="#fa0"/>
        <path id="Path_479" data-name="Path 479" d="M231.668,87.2h0a5.887,5.887,0,1,1,5.887-5.887A5.894,5.894,0,0,1,231.667,87.2Zm0-7.818a1.931,1.931,0,1,0,1.932,1.931A1.934,1.934,0,0,0,231.667,79.386Z" transform="translate(-225.781 -75.431)" fill="#fa0"/>
      </g>
      <g id="Path_415" data-name="Path 415" transform="translate(0 7.777)">
        <path id="Path_480" data-name="Path 480" d="M238.508,91.05h-1.955a4.886,4.886,0,1,0-9.772,0h-1.955a6.841,6.841,0,1,1,13.682,0Z" transform="translate(-223.826 -83.208)" fill="#fa0"/>
        <path id="Path_481" data-name="Path 481" d="M239.508,92.05h-3.954v-1a3.886,3.886,0,1,0-7.773,0v1h-3.955v-1a7.841,7.841,0,1,1,15.682,0Z" transform="translate(-223.826 -83.208)" fill="#fa0"/>
      </g>
    </g>
    <g id="Group_225" data-name="Group 225" transform="translate(196.52 75.161)">
      <g id="Path_414-2" data-name="Path 414" transform="translate(1.954)">
        <path id="Path_482" data-name="Path 482" d="M204.81,86.2a4.887,4.887,0,1,1,4.887-4.886A4.887,4.887,0,0,1,204.81,86.2Zm0-7.818a2.931,2.931,0,1,0,2.932,2.932A2.932,2.932,0,0,0,204.81,78.386Z" transform="translate(-198.924 -75.431)" fill="#fa0"/>
        <path id="Path_483" data-name="Path 483" d="M204.812,87.2h0a5.887,5.887,0,1,1,5.885-5.887A5.893,5.893,0,0,1,204.811,87.2Zm0-7.818a1.931,1.931,0,1,0,1.931,1.931A1.933,1.933,0,0,0,204.811,79.386Z" transform="translate(-198.924 -75.431)" fill="#fa0"/>
      </g>
      <g id="Path_415-2" data-name="Path 415" transform="translate(0 7.777)">
        <path id="Path_484" data-name="Path 484" d="M211.651,91.05H209.7a4.887,4.887,0,1,0-9.773,0h-1.955a6.841,6.841,0,1,1,13.682,0Z" transform="translate(-196.97 -83.208)" fill="#fa0"/>
        <path id="Path_485" data-name="Path 485" d="M212.651,92.05H208.7v-1a3.886,3.886,0,1,0-7.772,0v1H196.97v-1a7.841,7.841,0,1,1,15.681,0Z" transform="translate(-196.97 -83.208)" fill="#fa0"/>
      </g>
    </g>
    <g id="Group_226" data-name="Group 226" transform="translate(222.36 92.776)">
      <g id="Path_414-3" data-name="Path 414" transform="translate(1.955)">
        <path id="Path_486" data-name="Path 486" d="M231.667,104.4a4.887,4.887,0,1,1,4.886-4.886A4.885,4.885,0,0,1,231.667,104.4Zm0-7.818a2.932,2.932,0,1,0,2.932,2.932A2.932,2.932,0,0,0,231.667,96.584Z" transform="translate(-225.781 -93.629)" fill="#fa0"/>
        <path id="Path_487" data-name="Path 487" d="M231.668,105.4h0a5.887,5.887,0,1,1,5.887-5.886A5.893,5.893,0,0,1,231.667,105.4Zm0-7.818a1.931,1.931,0,1,0,1.932,1.932A1.934,1.934,0,0,0,231.667,97.584Z" transform="translate(-225.781 -93.629)" fill="#fa0"/>
      </g>
      <g id="Path_415-3" data-name="Path 415" transform="translate(0 7.777)">
        <path id="Path_488" data-name="Path 488" d="M238.508,109.248h-1.955a4.886,4.886,0,1,0-9.772,0h-1.955a6.841,6.841,0,1,1,13.682,0Z" transform="translate(-223.826 -101.406)" fill="#fa0"/>
        <path id="Path_489" data-name="Path 489" d="M239.508,110.248h-3.954v-1a3.886,3.886,0,1,0-7.773,0v1h-3.955v-1a7.841,7.841,0,1,1,15.682,0Z" transform="translate(-223.826 -101.406)" fill="#fa0"/>
      </g>
    </g>
    <g id="Group_227" data-name="Group 227" transform="translate(196.52 92.776)">
      <g id="Path_414-4" data-name="Path 414" transform="translate(1.954)">
        <path id="Path_490" data-name="Path 490" d="M204.81,104.4a4.887,4.887,0,1,1,4.887-4.886A4.886,4.886,0,0,1,204.81,104.4Zm0-7.818a2.932,2.932,0,1,0,2.932,2.932A2.932,2.932,0,0,0,204.81,96.584Z" transform="translate(-198.924 -93.629)" fill="#fa0"/>
        <path id="Path_491" data-name="Path 491" d="M204.812,105.4h0a5.887,5.887,0,1,1,5.885-5.886A5.892,5.892,0,0,1,204.811,105.4Zm0-7.818a1.931,1.931,0,1,0,1.931,1.932A1.933,1.933,0,0,0,204.811,97.584Z" transform="translate(-198.924 -93.629)" fill="#fa0"/>
      </g>
      <g id="Path_415-4" data-name="Path 415" transform="translate(0 7.777)">
        <path id="Path_492" data-name="Path 492" d="M211.651,109.248H209.7a4.887,4.887,0,1,0-9.773,0h-1.955a6.841,6.841,0,1,1,13.682,0Z" transform="translate(-196.97 -101.406)" fill="#fa0"/>
        <path id="Path_493" data-name="Path 493" d="M212.651,110.248H208.7v-1a3.886,3.886,0,1,0-7.772,0v1H196.97v-1a7.841,7.841,0,1,1,15.681,0Z" transform="translate(-196.97 -101.406)" fill="#fa0"/>
      </g>
    </g>
    <g id="Group_228" data-name="Group 228" transform="translate(185.087 67.01)">
      <path id="Path_494" data-name="Path 494" d="M247.128,73.27h-3.22V68.989a1.966,1.966,0,0,0-.569-1.4,1.944,1.944,0,0,0-1.387-.582l-2.869.237a63.333,63.333,0,0,0-19.329,4.743l-2.667,1.116L214.424,72a63.363,63.363,0,0,0-19.329-4.745l-2.706-.233a1.961,1.961,0,0,0-2.114,1.79l-.009,4.463h-3.22a1.968,1.968,0,0,0-1.959,1.973v43.8a1.967,1.967,0,0,0,1.959,1.971h60.082a1.967,1.967,0,0,0,1.959-1.971v-43.8A1.968,1.968,0,0,0,247.128,73.27Zm-30.041,43.79-1.959-.98-.631-.266a63.285,63.285,0,0,0-19.32-4.761l-.993-.084V71.131l.583.049a59.483,59.483,0,0,1,18.152,4.455l2.21.924,1.959,1.036,1.958-1.036,2.215-.926a59.449,59.449,0,0,1,18.148-4.453l.582-.049v39.835l-.855.07a63.754,63.754,0,0,0-19.339,4.733l-.752.314Zm11.263-.089c.4-.115.811-.223,1.292-.344.3-.075.592-.151.9-.223.422-.1.848-.195,1.277-.285l.182-.04c.245-.054.491-.109.74-.158.45-.088.9-.167,1.352-.247l.873-.153c.5-.08,1.007-.149,1.511-.215l.727-.1q1.125-.136,2.256-.233l2.652-.217a1.976,1.976,0,0,0,1.8-1.969V77.214h1.262v39.852H228.011Zm-36.292-2.222,2.789.24c.749.064,1.5.142,2.247.235.138.016.277.036.414.056l.347.049c.489.066.98.133,1.467.211.22.035.442.075.661.115l.218.039c.448.079.894.158,1.339.246q.411.084.822.175l.1.021c.429.094.86.188,1.285.289.307.074.619.153.926.232.421.109.844.221,1.263.338l.259.073H189V77.214h1.262V112.78A1.977,1.977,0,0,0,192.059,114.749Z" transform="translate(-185.087 -67.01)" fill="#fa0"/>
    </g>
    <g id="Group_230" data-name="Group 230" transform="translate(215.087 80.272)">
      <g id="Group_229" data-name="Group 229">
        <rect id="Rectangle_86" data-name="Rectangle 86" width="4" height="27.476" fill="#fa0"/>
      </g>
    </g>
  </g>
</svg>
