<svg id="store_apple" xmlns="http://www.w3.org/2000/svg" width="138.723" height="40" viewBox="0 0 138.723 40">
  <path id="Path_509" data-name="Path 509" d="M138.723,35.991A4,4,0,0,1,134.729,40H4a4,4,0,0,1-4-4.009V4.014A4.01,4.01,0,0,1,4,0H134.728a4.005,4.005,0,0,1,4,4.014Z"/>
  <path id="Path_510" data-name="Path 510" d="M31.874,19.83a5.685,5.685,0,0,1,2.76-4.776,5.977,5.977,0,0,0-4.675-2.483c-1.967-.2-3.875,1.157-4.878,1.157-1.021,0-2.564-1.137-4.226-1.1a6.241,6.241,0,0,0-5.246,3.134c-2.267,3.85-.581,9.508,1.6,12.626,1.08,1.527,2.349,3.223,4.01,3.167,1.62-.064,2.226-1.021,4.19-1.021,1.94,0,2.512,1.013,4.206.981,1.743-.032,2.84-1.535,3.887-3.078a12.469,12.469,0,0,0,1.776-3.56,5.527,5.527,0,0,1-3.421-5.063Zm-3.2-9.307a5.539,5.539,0,0,0,1.306-4.015,5.876,5.876,0,0,0-3.765,1.91,5.245,5.245,0,0,0-1.342,3.866,4.83,4.83,0,0,0,3.789-1.76ZM55.388,31.339H53.117L51.873,27.5H47.552l-1.185,3.839h-2.21L48.44,18.271h2.646l4.3,13.068ZM51.5,25.89l-1.125-3.413q-.178-.522-.671-2.462h-.041q-.2.834-.63,2.462l-1.1,3.413Zm14.905.621a5.3,5.3,0,0,1-1.323,3.8,3.918,3.918,0,0,1-2.946,1.241A2.951,2.951,0,0,1,59.41,30.21h-.041v4.959H57.241V25.019c0-1.008-.033-2.041-.082-3.1h1.874l.115,1.493h.041a3.827,3.827,0,0,1,6.064-.37,5.154,5.154,0,0,1,1.129,3.472Zm-2.172.077A3.836,3.836,0,0,0,63.6,24.32a2.2,2.2,0,0,0-1.856-.931,2.238,2.238,0,0,0-1.431.514,2.884,2.884,0,0,0-.945,1.983v1.567a2.506,2.506,0,0,0,.638,1.736,2.134,2.134,0,0,0,1.67.707,2.194,2.194,0,0,0,1.874-.916,4.014,4.014,0,0,0,.671-2.4Zm13.207-.077a5.294,5.294,0,0,1-1.323,3.8,3.9,3.9,0,0,1-2.94,1.241,2.956,2.956,0,0,1-2.724-1.342h-.041v4.959H68.282V25.019q0-1.512-.079-3.1h1.876L70.2,23.41h.041a3.836,3.836,0,0,1,6.072-.37,5.117,5.117,0,0,1,1.138,3.472Zm-2.171.077a3.831,3.831,0,0,0-.633-2.269,2.192,2.192,0,0,0-1.854-.931,2.241,2.241,0,0,0-1.432.514,2.373,2.373,0,0,0-.837,1.348,2.663,2.663,0,0,0-.1.635v1.567a2.506,2.506,0,0,0,.638,1.736A2.353,2.353,0,0,0,74.6,28.98a3.975,3.975,0,0,0,.671-2.4Zm14.51,1.085A3.454,3.454,0,0,1,88.6,30.389a5.3,5.3,0,0,1-3.625,1.149,6.408,6.408,0,0,1-3.448-.812l.494-1.744a5.862,5.862,0,0,0,3.081.836,2.958,2.958,0,0,0,1.874-.53,1.735,1.735,0,0,0,.671-1.423,1.8,1.8,0,0,0-.557-1.334,5.1,5.1,0,0,0-1.841-1q-3.5-1.278-3.494-3.745a3.3,3.3,0,0,1,1.219-2.636,4.894,4.894,0,0,1,3.257-1.029,6.6,6.6,0,0,1,3.02.619l-.532,1.712a5.337,5.337,0,0,0-2.553-.6,2.609,2.609,0,0,0-1.76.547,1.516,1.516,0,0,0-.532,1.181,1.569,1.569,0,0,0,.606,1.278,6.788,6.788,0,0,0,1.931,1.013,6.464,6.464,0,0,1,2.521,1.591,3.27,3.27,0,0,1,.81,2.266Zm7.049-4.187H94.478v4.576c0,1.163.412,1.744,1.244,1.744a3.889,3.889,0,0,0,.946-.1l.059,1.59a4.916,4.916,0,0,1-1.658.231,2.583,2.583,0,0,1-1.975-.755,3.662,3.662,0,0,1-.712-2.54v-4.75h-1.4V21.914h1.4V20.189l2.1-.62v2.347h2.349v1.572Zm10.6,3.064a5.115,5.115,0,0,1-1.264,3.568,4.556,4.556,0,0,1-3.516,1.434,4.333,4.333,0,0,1-3.364-1.382A4.953,4.953,0,0,1,98.031,26.7a5.1,5.1,0,0,1,1.293-3.593,4.533,4.533,0,0,1,3.486-1.4,4.423,4.423,0,0,1,3.4,1.374,4.9,4.9,0,0,1,1.228,3.448Zm-2.211.068a4.183,4.183,0,0,0-.573-2.242,2.1,2.1,0,0,0-1.913-1.125,2.149,2.149,0,0,0-1.954,1.125,4.236,4.236,0,0,0-.573,2.274,4.169,4.169,0,0,0,.573,2.234,2.163,2.163,0,0,0,1.935,1.125,2.136,2.136,0,0,0,1.915-1.149,4.216,4.216,0,0,0,.6-2.258Zm9.14-2.861a3.557,3.557,0,0,0-.671-.064,2.013,2.013,0,0,0-1.737.836,3.083,3.083,0,0,0-.532,1.857v4.951h-2.132l.02-6.462q0-1.628-.079-2.966h1.85l.074,1.8h.057a3.243,3.243,0,0,1,1.064-1.495,2.608,2.608,0,0,1,1.539-.506,3.633,3.633,0,0,1,.532.032v1.993Zm9.534,2.419a4.9,4.9,0,0,1-.077.948h-6.4a2.717,2.717,0,0,0,.933,2.13,3.239,3.239,0,0,0,2.1.659,7.221,7.221,0,0,0,2.594-.45l.336,1.455a8.132,8.132,0,0,1-3.216.579,4.423,4.423,0,0,1-4.771-4.758,5.3,5.3,0,0,1,1.187-3.544,4.1,4.1,0,0,1,3.355-1.511,3.59,3.59,0,0,1,3.143,1.511,5,5,0,0,1,.851,2.966Zm-2.032-.547a2.8,2.8,0,0,0-.414-1.607,1.858,1.858,0,0,0-1.694-.876,2.028,2.028,0,0,0-1.694.852,3.114,3.114,0,0,0-.63,1.623h4.444ZM45.168,7.546a3.782,3.782,0,0,1,.771-.339,3.311,3.311,0,0,1,1.007-.138,2.3,2.3,0,0,1,1.481.438,1.448,1.448,0,0,1,.54,1.181,1.433,1.433,0,0,1-.368,1,1.757,1.757,0,0,1-.933.538v.032a2.305,2.305,0,0,1,.581.169,1.529,1.529,0,0,1,.483.321,1.559,1.559,0,0,1,.327.466,1.408,1.408,0,0,1,.123.595,1.692,1.692,0,0,1-.221.9,1.825,1.825,0,0,1-.573.595,2.4,2.4,0,0,1-.794.33,4.072,4.072,0,0,1-.876.1,4.459,4.459,0,0,1-.925-.1,2.933,2.933,0,0,1-.843-.313l.262-.788a4.585,4.585,0,0,0,.647.241,2.732,2.732,0,0,0,.8.121,1.6,1.6,0,0,0,1.036-.3.982.982,0,0,0,.365-.8.951.951,0,0,0-.147-.547,1.051,1.051,0,0,0-.376-.338,1.634,1.634,0,0,0-.524-.173,3.348,3.348,0,0,0-.565-.048h-.435V9.917h.434A1.946,1.946,0,0,0,47,9.841a1.389,1.389,0,0,0,.444-.211,1.039,1.039,0,0,0,.295-.33.881.881,0,0,0,.106-.426.812.812,0,0,0-.311-.671,1.317,1.317,0,0,0-.835-.245,2.3,2.3,0,0,0-.72.113,4.817,4.817,0,0,0-.642.249l-.229-.731ZM53.5,13.594l-.078-.534h-.029a1.612,1.612,0,0,1-1.377.643,1.5,1.5,0,0,1-.581-.1,1.475,1.475,0,0,1-.457-.281,1.209,1.209,0,0,1-.3-.426,1.347,1.347,0,0,1-.106-.538,1.4,1.4,0,0,1,.719-1.294,4.043,4.043,0,0,1,2.038-.434v-.088c0-.611-.327-.908-.979-.908a2.247,2.247,0,0,0-1.229.346L50.906,9.3a3.047,3.047,0,0,1,1.617-.394,1.666,1.666,0,0,1,1.85,1.913v1.711a6.9,6.9,0,0,0,.068,1.1H53.5Zm-.146-2.305a2.978,2.978,0,0,0-1.309.219.75.75,0,0,0-.434.715.7.7,0,0,0,.2.543.724.724,0,0,0,.507.181,1.053,1.053,0,0,0,.385-.072.982.982,0,0,0,.319-.2,1.165,1.165,0,0,0,.229-.3A.845.845,0,0,0,53.329,12v-.715Zm6.072-2.324v.848H57.462v3.781H56.414V8.965h3Zm5.991,2.258a3.273,3.273,0,0,1-.155,1.009,2.329,2.329,0,0,1-.434.781,1.949,1.949,0,0,1-1.514.686,1.457,1.457,0,0,1-1.342-.657h-.025v2.438H60.908V10.49c0-.248,0-.5-.008-.747s-.016-.511-.029-.778h.921l.057.734h.016a1.742,1.742,0,0,1,1.588-.828,1.764,1.764,0,0,1,.769.169,1.836,1.836,0,0,1,.614.482,2.3,2.3,0,0,1,.409.743,2.965,2.965,0,0,1,.147.958Zm-1.064.038a2.22,2.22,0,0,0-.09-.633,1.486,1.486,0,0,0-.246-.5,1.162,1.162,0,0,0-.393-.324,1.12,1.12,0,0,0-.958-.023,1.125,1.125,0,0,0-.376.257,1.236,1.236,0,0,0-.254.39,1.216,1.216,0,0,0-.1.486v.772a1.3,1.3,0,0,0,.082.477,1.209,1.209,0,0,0,.229.381,1.035,1.035,0,0,0,.36.252,1.122,1.122,0,0,0,.458.09,1.093,1.093,0,0,0,.925-.442,1.944,1.944,0,0,0,.327-1.188Zm6.686-2.3-1.187,3.211a14.308,14.308,0,0,1-.835,1.871,4.212,4.212,0,0,1-.769,1.063,2.349,2.349,0,0,1-1.154.58l-.254-.866a2.011,2.011,0,0,0,.777-.41,2.233,2.233,0,0,0,.589-.762.611.611,0,0,0,.074-.209.734.734,0,0,0-.057-.219l-1.7-4.257h1.154l.892,2.582c.049.121.09.257.139.4l.147.506h.016c.033-.1.065-.233.106-.386a5.14,5.14,0,0,1,.155-.538l.794-2.572h1.121Zm1.817,1.925h.483a1.524,1.524,0,0,0,.827-.191.561.561,0,0,0,.286-.468.52.52,0,0,0-.254-.457A1.189,1.189,0,0,0,73.51,9.6a1.935,1.935,0,0,0-.573.091,3.185,3.185,0,0,0-.532.225l-.27-.667a3.005,3.005,0,0,1,.81-.3,4.537,4.537,0,0,1,.81-.08,3.6,3.6,0,0,1,.647.064,1.865,1.865,0,0,1,.573.209,1.241,1.241,0,0,1,.409.386,1.043,1.043,0,0,1,.164.595.793.793,0,0,1-.09.386,1.035,1.035,0,0,1-.237.3,1.077,1.077,0,0,1-.327.209,1.727,1.727,0,0,1-.36.121v.032a2.336,2.336,0,0,1,.45.121,1.9,1.9,0,0,1,.393.225,1.127,1.127,0,0,1,.278.338.977.977,0,0,1,.1.442,1.135,1.135,0,0,1-.2.691,1.469,1.469,0,0,1-.516.442,2.352,2.352,0,0,1-.687.233,3.942,3.942,0,0,1-.737.072,4.443,4.443,0,0,1-.866-.088,2.567,2.567,0,0,1-.769-.281l.278-.675a3.127,3.127,0,0,0,.573.225A2.282,2.282,0,0,0,73.49,13a1.391,1.391,0,0,0,.818-.2.613.613,0,0,0,.286-.506.552.552,0,0,0-.1-.338.672.672,0,0,0-.27-.225,1.434,1.434,0,0,0-.409-.121,4.845,4.845,0,0,0-.5-.032h-.491v-.66Zm5.59-1.925V10.6q0,.563-.025,1.009t-.049.94l.016.016.36-.715.36-.715,1.17-2.186h1.359v4.629h-.99v-1.64c0-.346.008-.683.025-1.029l.049-1.037h-.049a7.329,7.329,0,0,1-.336.739c-.115.209-.221.426-.327.643-.2.378-.4.764-.6,1.141s-.409.772-.63,1.173H77.439V8.961h1Zm8.724,0v.848h-1.44v3.781H84.7V9.813H83.274V8.965h3.887Zm5.344,2.1a2.441,2.441,0,0,1-.016.252c-.008.08-.016.151-.025.214H89.33a1.315,1.315,0,0,0,.417,1.014,1.546,1.546,0,0,0,1.064.358,3.535,3.535,0,0,0,1.269-.219l.164.715a4.035,4.035,0,0,1-1.588.285,2.8,2.8,0,0,1-.99-.166,1.973,1.973,0,0,1-.737-.472,2.1,2.1,0,0,1-.458-.733,2.742,2.742,0,0,1-.155-.962,2.918,2.918,0,0,1,.155-.989,2.345,2.345,0,0,1,.45-.788,1.955,1.955,0,0,1,.7-.522,2.123,2.123,0,0,1,.917-.193,2.047,2.047,0,0,1,.81.153,1.754,1.754,0,0,1,.614.442,1.99,1.99,0,0,1,.393.691,2.818,2.818,0,0,1,.131.9Zm-1-.265a1.366,1.366,0,0,0-.27-.882.926.926,0,0,0-.769-.339,1.015,1.015,0,0,0-.777.342,1.438,1.438,0,0,0-.368.878h2.177ZM96.728,9c.188-.032.426-.056.72-.076s.589-.029.892-.029c.188,0,.409.012.655.034a2.652,2.652,0,0,1,.687.153,1.346,1.346,0,0,1,.548.357,1,1,0,0,1,.139,1.023,1.1,1.1,0,0,1-.213.3,1.335,1.335,0,0,1-.663.33l.008.032a1.649,1.649,0,0,1,.835.362.962.962,0,0,1,.319.764,1.059,1.059,0,0,1-.27.772,1.663,1.663,0,0,1-.671.434,3.146,3.146,0,0,1-.837.185c-.295.024-.557.04-.79.04-.262,0-.516-.008-.767-.016s-.458-.024-.626-.04V9.009Zm1.007,1.849h.532a3.059,3.059,0,0,0,.458-.034,1.342,1.342,0,0,0,.385-.1.607.607,0,0,0,.254-.185.519.519,0,0,0-.18-.747,1.856,1.856,0,0,0-.843-.145c-.115,0-.2.008-.286.008l-.336.032v1.189Zm0,2.047c.131.013.237.022.327.028s.188.01.3.01a3.229,3.229,0,0,0,.434-.028,1.455,1.455,0,0,0,.409-.109.752.752,0,0,0,.295-.217.568.568,0,0,0,.115-.365.552.552,0,0,0-.36-.549,2.486,2.486,0,0,0-.974-.153h-.556V12.9Z" fill="#fff"/>
</svg>
