<svg id="Group_100" data-name="Group 100" xmlns="http://www.w3.org/2000/svg" width="62.978" height="63.64" viewBox="0 0 62.978 63.64">
  <path id="Path_417" data-name="Path 417" d="M243.3,237.354H196.758a4.976,4.976,0,0,0-4.97,4.97v1.292h-.936a5.557,5.557,0,0,0,0,11.114h.936v2.22h-.936a5.555,5.555,0,0,0,0,11.11h.936v2.22h-.936a5.557,5.557,0,0,0,0,11.114h.936v2.222h-.936a5.555,5.555,0,0,0,0,11.11h.936v1.292a4.979,4.979,0,0,0,4.97,4.976H243.3a4.98,4.98,0,0,0,4.972-4.976V242.324A4.978,4.978,0,0,0,243.3,237.354ZM191.788,290.72h-.936a1.55,1.55,0,0,1,0-3.1h.936Zm0-13.33h-.936a1.553,1.553,0,0,1,0-3.106h.936Zm0-13.334h-.936a1.551,1.551,0,0,1,0-3.1h.936Zm0-13.332h-.936a1.552,1.552,0,0,1,0-3.1h.936Zm52.484,45.294a.97.97,0,0,1-.968.97H196.758a.97.97,0,0,1-.966-.97v-8.4l.236.08a1.548,1.548,0,0,1,1.06,1.472,2,2,0,0,0,4.006,0,5.582,5.582,0,0,0-5.088-5.536l-.164-.014-.05-9.336.24.08a1.55,1.55,0,0,1,1.056,1.474,2,2,0,0,0,4.006,0,5.585,5.585,0,0,0-5.088-5.538l-.164-.014-.05-9.334.24.08a1.551,1.551,0,0,1,1.056,1.47,2,2,0,1,0,4.006,0,5.587,5.587,0,0,0-5.088-5.534l-.164-.014-.05-9.336.24.08a1.549,1.549,0,0,1,1.056,1.47,2,2,0,1,0,4.006,0,5.585,5.585,0,0,0-5.1-5.536l-.16-.014-.042-1.29a.97.97,0,0,1,.966-.974H243.3a.969.969,0,0,1,.968.968Z" transform="translate(-185.298 -237.354)" fill="#fff"/>
  <path id="Path_418" data-name="Path 418" d="M223.2,261.765c-.16-.094-.334-.186-.52-.276.186-.092.36-.182.52-.276a5.968,5.968,0,0,0-5.968-10.338c-.16.094-.328.2-.5.314.014-.206.02-.4.02-.59a5.968,5.968,0,1,0-11.936,0c0,.188.008.384.022.59-.172-.116-.338-.22-.5-.312a5.968,5.968,0,0,0-5.968,10.336c.162.094.334.186.52.276-.186.09-.358.184-.52.276a5.968,5.968,0,0,0,5.968,10.338c.162-.092.328-.2.5-.312-.014.2-.022.4-.022.588a5.968,5.968,0,0,0,11.936,0c0-.188-.006-.384-.02-.588.17.114.338.218.5.312a5.967,5.967,0,0,0,8.748-6.714A5.919,5.919,0,0,0,223.2,261.765Zm-3.958,6.856a18.062,18.062,0,0,1-3.736-3.48,6.094,6.094,0,0,0,.45-.668,5.913,5.913,0,0,0,.354-.724,18.108,18.108,0,0,1,4.882,1.494,1.953,1.953,0,0,1,.714,2.664v0a1.949,1.949,0,0,1-2.664.712Zm2.664-13.552a1.952,1.952,0,0,1-.714,2.664,18.036,18.036,0,0,1-4.882,1.494,6.034,6.034,0,0,0-.354-.722,6.12,6.12,0,0,0-.45-.67,18.061,18.061,0,0,1,3.736-3.48A1.949,1.949,0,0,1,221.91,255.069Zm-11.12,8.372a1.952,1.952,0,1,1,1.952-1.952A1.954,1.954,0,0,1,210.79,263.441Zm0-7.92a6.036,6.036,0,0,0-.8.054,18.144,18.144,0,0,1-1.146-4.976,1.951,1.951,0,0,1,3.9,0,18.118,18.118,0,0,1-1.148,4.976A5.992,5.992,0,0,0,210.79,255.521Zm-.8,11.882a6.011,6.011,0,0,0,1.608,0,18.087,18.087,0,0,1,1.148,4.976,1.951,1.951,0,0,1-3.9,0A18.144,18.144,0,0,1,209.986,267.4Zm-7.65,1.22a1.964,1.964,0,0,1-1.48.194,1.93,1.93,0,0,1-1.184-.908,1.955,1.955,0,0,1,.712-2.666,18.174,18.174,0,0,1,4.884-1.494,5.909,5.909,0,0,0,.354.724,5.737,5.737,0,0,0,.45.668,18.112,18.112,0,0,1-3.736,3.48Zm0-14.268a18.161,18.161,0,0,1,3.736,3.48,6,6,0,0,0-.45.668,6.224,6.224,0,0,0-.356.724,18.083,18.083,0,0,1-4.882-1.494,1.951,1.951,0,1,1,1.952-3.378Z" transform="translate(-175.206 -230.077)" fill="#fff"/>
</svg>
