<svg id="store_google" xmlns="http://www.w3.org/2000/svg" xmlns:xlink="http://www.w3.org/1999/xlink" width="138.723" height="40" viewBox="0 0 138.723 40">
  <defs>
    <linearGradient id="linear-gradient" x1="0.915" y1="-0.513" x2="-0.384" y2="-1.183" gradientUnits="objectBoundingBox">
      <stop offset="0" stop-color="#00a0ff"/>
      <stop offset="0.007" stop-color="#00a1ff"/>
      <stop offset="0.26" stop-color="#00beff"/>
      <stop offset="0.512" stop-color="#00d2ff"/>
      <stop offset="0.76" stop-color="#00dfff"/>
      <stop offset="1" stop-color="#00e3ff"/>
    </linearGradient>
    <linearGradient id="linear-gradient-2" x1="1.076" y1="-3.79" x2="-1.305" y2="-3.79" gradientUnits="objectBoundingBox">
      <stop offset="0" stop-color="#ffe000"/>
      <stop offset="0.409" stop-color="#ffbd00"/>
      <stop offset="0.775" stop-color="orange"/>
      <stop offset="1" stop-color="#ff9c00"/>
    </linearGradient>
    <linearGradient id="linear-gradient-3" x1="0.862" y1="-3.032" x2="-0.501" y2="-4.802" gradientUnits="objectBoundingBox">
      <stop offset="0" stop-color="#ff3a44"/>
      <stop offset="1" stop-color="#c31162"/>
    </linearGradient>
    <linearGradient id="linear-gradient-4" x1="-0.188" y1="-0.312" x2="0.421" y2="-1.102" gradientUnits="objectBoundingBox">
      <stop offset="0" stop-color="#32a071"/>
      <stop offset="0.069" stop-color="#2da771"/>
      <stop offset="0.476" stop-color="#15cf74"/>
      <stop offset="0.801" stop-color="#06e775"/>
      <stop offset="1" stop-color="#00f076"/>
    </linearGradient>
  </defs>
  <path id="Path_511" data-name="Path 511" d="M133.586,40H5.138A5.086,5.086,0,0,1,0,35V5A5.086,5.086,0,0,1,5.138,0H133.586a5.086,5.086,0,0,1,5.138,5V35A5.086,5.086,0,0,1,133.586,40Z"/>
  <path id="Path_512" data-name="Path 512" d="M78.346,24.206a5.114,5.114,0,1,1-.007,0Zm0,7.106a2.689,2.689,0,1,1,2.5-2.683,2.56,2.56,0,0,1-2.5,2.683Zm-9.688-7.106A4.424,4.424,0,1,0,73.1,28.631a4.361,4.361,0,0,0-4.441-4.425Zm0,7.106a2.689,2.689,0,1,1,2.5-2.683,2.56,2.56,0,0,1-2.5,2.683ZM57.135,25.564v1.877h4.49A3.914,3.914,0,0,1,60.6,29.8a4.6,4.6,0,0,1-3.47,1.374,5,5,0,0,1,0-9.99,4.806,4.806,0,0,1,3.386,1.336L61.848,21.2a6.547,6.547,0,0,0-4.706-1.9,6.869,6.869,0,1,0,0,13.736,6.088,6.088,0,0,0,6.417-6.323,5.991,5.991,0,0,0-.1-1.174H57.141Zm47.129,1.458a4.113,4.113,0,0,0-3.787-2.815A4.2,4.2,0,0,0,96.3,28.632a4.329,4.329,0,0,0,4.391,4.423,4.4,4.4,0,0,0,3.685-1.961l-1.506-1a2.532,2.532,0,0,1-2.179,1.222,2.248,2.248,0,0,1-2.145-1.34l5.915-2.451-.2-.5ZM98.231,28.5a2.426,2.426,0,0,1,2.312-2.58,1.7,1.7,0,0,1,1.634.938L98.22,28.5Zm-4.81,4.289h1.944v-13H93.421Zm-3.183-7.591H90.17a3.066,3.066,0,0,0-2.329-.987,4.428,4.428,0,0,0,0,8.849,3.015,3.015,0,0,0,2.329-1.007h.068v.638c0,1.692-.906,2.6-2.363,2.6a2.449,2.449,0,0,1-2.23-1.574l-1.692.7a4.216,4.216,0,0,0,3.922,2.614c2.279,0,4.206-1.345,4.206-4.613v-7.94H90.238v.715Zm-2.23,6.117a2.69,2.69,0,0,1,0-5.362,2.493,2.493,0,0,1,2.363,2.7A2.472,2.472,0,0,1,88.008,31.312ZM113.37,19.782h-4.652v13h1.94V27.859h2.711a4.044,4.044,0,1,0-.009-8.077Zm.049,6.267h-2.76V21.6h2.76a2.229,2.229,0,1,1,0,4.457Zm12-1.864a3.648,3.648,0,0,0-3.464,1.991l1.723.723a1.847,1.847,0,0,1,1.774-.953,1.87,1.87,0,0,1,2.041,1.677v.136a4.355,4.355,0,0,0-2.026-.5c-1.855,0-3.746,1.021-3.746,2.928a3,3,0,0,0,3.229,2.86,2.747,2.747,0,0,0,2.477-1.268h.066v1h1.874V27.794c0-2.306-1.723-3.591-3.949-3.591Zm-.235,7.132c-.636,0-1.523-.315-1.523-1.1,0-1,1.106-1.387,2.06-1.387a3.5,3.5,0,0,1,1.773.434,2.351,2.351,0,0,1-2.309,2.06Zm11.008-6.843-2.226,5.633H133.9l-2.315-5.639h-2.094l3.464,7.881-1.974,4.383H133l5.336-12.264h-2.162Zm-17.483,8.314h1.94v-13h-1.94Z" transform="translate(-7.472 -2.874)" fill="#fff"/>
  <path id="Path_513" data-name="Path 513" d="M12.67,7.68a2.084,2.084,0,0,0-.481,1.461v23a2.1,2.1,0,0,0,.477,1.462l.077.075L25.627,20.8v-.3L12.743,7.606l-.077.077Z" transform="translate(-1.815 -1.133)" fill="url(#linear-gradient)"/>
  <path id="Path_514" data-name="Path 514" d="M32.282,26.6l-4.3-4.3v-.3l4.3-4.3.1.051,5.089,2.894c1.447.826,1.447,2.179,0,3L32.38,26.533l-.1.051Z" transform="translate(-4.168 -2.636)" fill="url(#linear-gradient-2)"/>
  <path id="Path_515" data-name="Path 515" d="M30.112,27.319l-4.394-4.393L12.754,35.889a1.692,1.692,0,0,0,2.162.064l15.2-8.634" transform="translate(-1.9 -3.415)" fill="url(#linear-gradient-3)"/>
  <path id="Path_516" data-name="Path 516" d="M30.112,16.191l-15.2-8.634a1.693,1.693,0,0,0-2.162.064L25.717,20.585l4.393-4.394Z" transform="translate(-1.899 -1.073)" fill="url(#linear-gradient-4)"/>
  <path id="Path_517" data-name="Path 517" d="M30.015,27.975l-15.1,8.579a1.735,1.735,0,0,1-2.085.011l-.077.077.077.077v0a1.733,1.733,0,0,0,2.085-.011l15.2-8.634-.1-.1Z" transform="translate(-1.9 -4.166)" opacity="0.2"/>
  <path id="Path_518" data-name="Path 518" d="M12.67,35.738a2.084,2.084,0,0,1-.481-1.461v.153a2.1,2.1,0,0,0,.477,1.46l.077-.085-.077-.077ZM35.118,24.276,29.93,27.223l.1.1,5.089-2.892a1.829,1.829,0,0,0,1.089-1.5,1.965,1.965,0,0,1-1.089,1.35Z" transform="translate(-1.815 -3.415)" opacity="0.12"/>
  <path id="Path_519" data-name="Path 519" d="M14.831,7.709,35.117,19.235a1.934,1.934,0,0,1,1.089,1.35,1.825,1.825,0,0,0-1.089-1.5L14.831,7.559c-1.454-.827-2.643-.141-2.643,1.523v.153c0-1.666,1.188-2.351,2.642-1.526Z" transform="translate(-1.815 -1.073)" fill="#fff" opacity="0.25"/>
  <path id="Path_520" data-name="Path 520" d="M51.338,14.577h-.766V12.485h.609a2.974,2.974,0,0,0,.794-2.388V7.011h4.17v5.474h.7v2.091h-.766V13.253H51.346v1.323ZM52.776,10.1a4.108,4.108,0,0,1-.592,2.388H55.34V7.779H52.776Zm10.317,2.347a3.241,3.241,0,0,1-4.576,0,3.2,3.2,0,0,1-.919-2.315,3.2,3.2,0,0,1,.919-2.315,3.233,3.233,0,0,1,4.573.005,3.192,3.192,0,0,1,.923,2.31,3.2,3.2,0,0,1-.919,2.315Zm-3.983-.522a2.4,2.4,0,0,0,3.39,0,2.438,2.438,0,0,0,.694-1.787A2.438,2.438,0,0,0,62.5,8.352a2.4,2.4,0,0,0-3.391.009,2.446,2.446,0,0,0-.693,1.794,2.448,2.448,0,0,0,.689,1.791Zm8.94,1.468a3.186,3.186,0,0,1-3.243-3.26,3.188,3.188,0,0,1,3.243-3.26,2.886,2.886,0,0,1,2.293,1.021l-.559.545a2.1,2.1,0,0,0-1.734-.791,2.36,2.36,0,0,0-1.722.689,2.42,2.42,0,0,0-.7,1.8,2.4,2.4,0,0,0,.7,1.8,2.362,2.362,0,0,0,1.722.689,2.458,2.458,0,0,0,1.917-.9l.562.562a2.952,2.952,0,0,1-1.072.817,3.2,3.2,0,0,1-1.4.306Zm5.719-.138h-.8V7.777H71.223V7.011h4.289v.766H73.768v5.474Zm7.249-6.242-2.362,5.265A1.563,1.563,0,0,1,77.2,13.391a1.6,1.6,0,0,1-.613-.139L76.8,12.5a.828.828,0,0,0,.417.111.712.712,0,0,0,.434-.111,1.053,1.053,0,0,0,.289-.4l.23-.5-2.1-4.613h.945l1.54,3.583h.034l1.506-3.583h.945Zm.908,6.242V7.011h4.515v6.241h-.8V7.777H82.728v5.474h-.8Zm5.944,0V7.011h.8V9.685h3.116V7.011h.8v6.241h-.8V10.434H88.672v2.817h-.8Zm11.26-.809a3.242,3.242,0,0,1-4.577,0,3.161,3.161,0,0,1-.919-2.315,3.164,3.164,0,0,1,.919-2.315,3.22,3.22,0,0,1,4.562.005,3.2,3.2,0,0,1,.919,2.31,3.2,3.2,0,0,1-.919,2.315Zm-3.983-.522a2.4,2.4,0,0,0,3.389,0,2.445,2.445,0,0,0,.689-1.787,2.418,2.418,0,0,0-.7-1.787,2.305,2.305,0,0,0-1.7-.7,2.28,2.28,0,0,0-1.694.706,2.456,2.456,0,0,0-.7,1.794,2.448,2.448,0,0,0,.689,1.791Zm8.181,1.33V7.011h2.255a1.835,1.835,0,0,1,1.27.483,1.569,1.569,0,0,1,.536,1.215,1.382,1.382,0,0,1-.231.791,1.452,1.452,0,0,1-.614.519v.034a1.628,1.628,0,0,1,.757.545,1.415,1.415,0,0,1,.3.894,1.648,1.648,0,0,1-.562,1.275,1.924,1.924,0,0,1-1.331.506h-2.379Zm.8-3.566h1.455a.935.935,0,0,0,.729-.3.924.924,0,0,0,0-1.311.9.9,0,0,0-.706-.3h-1.489V9.686Zm0,2.8h1.614a.955.955,0,0,0,.749-.323,1.039,1.039,0,0,0,.289-.706,1.053,1.053,0,0,0-1.074-1.02h-1.578Z" transform="translate(-7.532 -1.023)" fill="#fff"/>
</svg>
