<svg xmlns="http://www.w3.org/2000/svg" width="64.001" height="64" viewBox="0 0 64.001 64">
  <g id="Group_99" data-name="Group 99" transform="translate(-134 -882)">
    <rect id="Rectangle_52" data-name="Rectangle 52" width="64" height="64" transform="translate(134 882)" fill="none"/>
    <g id="Group_97" data-name="Group 97" transform="translate(134 882)">
      <path id="Path_413" data-name="Path 413" d="M243.3,237.354H196.758a4.976,4.976,0,0,0-4.97,4.97v1.292h-.936a5.557,5.557,0,0,0,0,11.114h.936v2.22h-.936a5.555,5.555,0,0,0,0,11.11h.936v2.22h-.936a5.557,5.557,0,0,0,0,11.114h.936v2.222h-.936a5.555,5.555,0,0,0,0,11.11h.936v1.292a4.979,4.979,0,0,0,4.97,4.976H243.3a4.98,4.98,0,0,0,4.972-4.976V242.324A4.978,4.978,0,0,0,243.3,237.354ZM191.788,290.72h-.936a1.55,1.55,0,0,1,0-3.1h.936Zm0-13.33h-.936a1.553,1.553,0,0,1,0-3.106h.936Zm0-13.334h-.936a1.551,1.551,0,0,1,0-3.1h.936Zm0-13.332h-.936a1.552,1.552,0,0,1,0-3.1h.936Zm52.484,45.294a.97.97,0,0,1-.968.97H196.758a.97.97,0,0,1-.966-.97v-8.4l.236.08a1.548,1.548,0,0,1,1.06,1.472,2,2,0,0,0,4.006,0,5.582,5.582,0,0,0-5.088-5.536l-.164-.014-.05-9.336.24.08a1.55,1.55,0,0,1,1.056,1.474,2,2,0,0,0,4.006,0,5.585,5.585,0,0,0-5.088-5.538l-.164-.014-.05-9.334.24.08a1.551,1.551,0,0,1,1.056,1.47,2,2,0,1,0,4.006,0,5.587,5.587,0,0,0-5.088-5.534l-.164-.014-.05-9.336.24.08a1.549,1.549,0,0,1,1.056,1.47,2,2,0,1,0,4.006,0,5.585,5.585,0,0,0-5.1-5.536l-.16-.014-.042-1.29a.97.97,0,0,1,.966-.974H243.3a.969.969,0,0,1,.968.968Z" transform="translate(-185.298 -237.354)" fill="#3bb781"/>
      <path id="Path_414" data-name="Path 414" d="M208.075,263.018a10,10,0,1,1,10-10A10.013,10.013,0,0,1,208.075,263.018Zm0-16a6,6,0,1,0,6,6A6.006,6.006,0,0,0,208.075,247.018Z" transform="translate(-172.521 -231.69)" fill="#3bb781"/>
      <path id="Path_415" data-name="Path 415" d="M224.075,264.977h-4a10,10,0,1,0-20,0h-4a14,14,0,1,1,28,0Z" transform="translate(-174.521 -223.733)" fill="#3bb781"/>
      <path id="Path_416" data-name="Path 416" d="M216.986,267.452l-4.792-3.388a.922.922,0,0,0-1.082,0l-4.792,3.388-4.792-3.388a.915.915,0,0,0-1.082,0l-3.64,2.572L194.5,263.37l3.638-2.572a4.877,4.877,0,0,1,5.7,0l2.484,1.756,2.48-1.756a4.883,4.883,0,0,1,5.7,0l2.482,1.756,2.482-1.756a4.88,4.88,0,0,1,5.7,0l3.636,2.572-2.308,3.266-3.638-2.572a.922.922,0,0,0-1.082,0Z" transform="translate(-176.098 -214.83)" fill="#3bb781"/>
    </g>
  </g>
</svg>
