<svg xmlns="http://www.w3.org/2000/svg" width="64" height="54.012" viewBox="0 0 64 54.012">
  <path id="Path_506" data-name="Path 506" d="M2581.714,283.025h-59.9a2.05,2.05,0,0,0-2.05,2.05V325.3a2.121,2.121,0,0,0,1.387,2.009l46.756,9.614a1.99,1.99,0,0,0,.671.117,2.092,2.092,0,0,0,2.052-2.126v-7.247h11.084a2.05,2.05,0,0,0,2.05-2.05V285.075A2.05,2.05,0,0,0,2581.714,283.025ZM2566.73,332.7l-43.066-8.855V287.366l43.066,8.855Zm13.134-8.932h-9.234v-29a2.122,2.122,0,0,0-1.387-2.009l-28.359-5.831h38.98Z" transform="translate(-2519.764 -283.025)" fill="#fa0"/>
</svg>
