<svg xmlns="http://www.w3.org/2000/svg" width="64" height="54.012" viewBox="0 0 64 54.012">
  <g id="Group_289" data-name="Group 289" transform="translate(-7876 -5178)">
    <g id="Group_220" data-name="Group 220" transform="translate(5535.792 4892.901)">
      <path id="Path_477" data-name="Path 477" d="M2402.25,291.362h-3.225v-4.281a1.961,1.961,0,0,0-.569-1.4,1.941,1.941,0,0,0-1.386-.582l-2.869.237a63.349,63.349,0,0,0-19.33,4.743L2372.2,291.2l-2.659-1.1a63.375,63.375,0,0,0-19.329-4.745l-2.706-.233a1.964,1.964,0,0,0-2.115,1.79l-.008,4.463h-3.22a1.968,1.968,0,0,0-1.959,1.973v43.8a1.967,1.967,0,0,0,1.959,1.971h60.083a1.965,1.965,0,0,0,1.958-1.971v-43.8a1.967,1.967,0,0,0-1.956-1.978Zm-30.042,43.79-1.958-.98-.631-.266a63.294,63.294,0,0,0-19.32-4.761l-.993-.084V289.223l.583.049a59.478,59.478,0,0,1,18.151,4.455l2.211.924,1.958,1.036,1.959-1.036,2.215-.926a59.46,59.46,0,0,1,18.148-4.453l.581-.049v39.835l-.855.07a63.8,63.8,0,0,0-19.339,4.733l-.751.314Zm11.265-.089c.4-.115.811-.223,1.292-.344.3-.075.591-.151.9-.223.421-.1.848-.2,1.276-.285l.183-.04c.245-.054.491-.109.739-.158.45-.088.9-.167,1.353-.247l.872-.153c.5-.08,1.008-.149,1.512-.215l.727-.1q1.125-.137,2.255-.233l2.653-.217a1.975,1.975,0,0,0,1.8-1.969V295.306h1.262v39.852h-17.165Zm-36.293-2.222,2.789.24q1.122.1,2.246.235c.139.016.277.036.415.056l.346.049c.489.066.98.133,1.468.211.22.035.441.075.661.115l.217.039c.448.079.894.158,1.339.246q.413.084.823.175l.1.021c.429.094.859.188,1.285.289.306.074.619.153.926.232q.632.164,1.263.338l.258.073h-17.191V295.306h1.262v35.566A1.977,1.977,0,0,0,2347.18,332.841Z" fill="#fa0"/>
    </g>
    <g id="Group_222" data-name="Group 222" transform="translate(5535.792 4892.901)">
      <g id="Group_221" data-name="Group 221">
        <rect id="Rectangle_85" data-name="Rectangle 85" width="4" height="27.476" transform="translate(2370.208 298.364)" fill="#fa0"/>
      </g>
    </g>
  </g>
</svg>
