<svg xmlns="http://www.w3.org/2000/svg" width="64" height="54.012" viewBox="0 0 64 54.012">
  <g id="Group_290" data-name="Group 290" transform="translate(-2377.361 -470.01)">
    <g id="Rectangle_87" data-name="Rectangle 87" transform="translate(2394.708 473.159)" fill="none" stroke="#fa0" stroke-miterlimit="10" stroke-width="3.9">
      <rect width="29.306" height="47.713" rx="2.05" stroke="none"/>
      <rect x="1.95" y="1.95" width="25.406" height="43.813" rx="0.1" fill="none"/>
    </g>
    <g id="Path_503" data-name="Path 503" fill="none" stroke-miterlimit="10">
      <path d="M2396.878,473.159l-17.784-3.149a1.977,1.977,0,0,0-1.733,2.152v49.707a1.978,1.978,0,0,0,1.733,2.153l17.784-3.15a1.977,1.977,0,0,0,1.733-2.152V475.312A1.978,1.978,0,0,0,2396.878,473.159Z" stroke="none"/>
      <path d="M 2381.260986328125 474.3544311523438 L 2381.260986328125 519.6774291992188 L 2394.711181640625 517.2951049804688 L 2394.711181640625 476.7359619140625 L 2381.260986328125 474.3544311523438 M 2379.093994140625 470.010009765625 L 2396.8779296875 473.1589965820313 C 2397.8349609375 473.1589965820313 2398.611083984375 474.1229858398438 2398.611083984375 475.31201171875 L 2398.611083984375 518.719970703125 C 2398.611083984375 519.9080200195313 2397.8349609375 520.8720092773438 2396.8779296875 520.8720092773438 L 2379.093994140625 524.02197265625 C 2378.136962890625 524.02197265625 2377.361083984375 523.0579833984375 2377.361083984375 521.8690185546875 L 2377.361083984375 472.1619873046875 C 2377.361083984375 470.9730224609375 2378.136962890625 470.010009765625 2379.093994140625 470.010009765625 Z" stroke="none" fill="#fa0"/>
    </g>
    <g id="Path_504" data-name="Path 504" fill="none" stroke-miterlimit="10">
      <path d="M2421.844,473.159l17.784-3.149a1.977,1.977,0,0,1,1.733,2.152v49.707a1.978,1.978,0,0,1-1.733,2.153l-17.784-3.15a1.977,1.977,0,0,1-1.733-2.152V475.312A1.978,1.978,0,0,1,2421.844,473.159Z" stroke="none"/>
      <path d="M 2437.461181640625 474.3543701171875 L 2424.010986328125 476.7359619140625 L 2424.010986328125 517.295166015625 L 2437.461181640625 519.677490234375 L 2437.461181640625 474.3543701171875 M 2439.6279296875 470.010009765625 C 2440.5849609375 470.010009765625 2441.361083984375 470.9730224609375 2441.361083984375 472.1619873046875 L 2441.361083984375 521.8690185546875 C 2441.361083984375 523.0579833984375 2440.5849609375 524.02197265625 2439.6279296875 524.02197265625 L 2421.843994140625 520.8720092773438 C 2420.886962890625 520.8720092773438 2420.111083984375 519.9080200195313 2420.111083984375 518.719970703125 L 2420.111083984375 475.31201171875 C 2420.111083984375 474.1229858398438 2420.886962890625 473.1589965820313 2421.843994140625 473.1589965820313 L 2439.6279296875 470.010009765625 Z" stroke="none" fill="#fa0"/>
    </g>
  </g>
</svg>
