<svg xmlns="http://www.w3.org/2000/svg" width="48" height="48" viewBox="0 0 48 48">
  <g id="Group_98" data-name="Group 98" transform="translate(-166 -906)">
    <rect id="Rectangle_52" data-name="Rectangle 52" width="48" height="48" transform="translate(166 906)" fill="none"/>
    <g id="Group_100" data-name="Group 100" transform="translate(166 906)">
      <path id="Path_417" data-name="Path 417" d="M228.8,237.354H193.893a3.732,3.732,0,0,0-3.727,3.727v.969h-.7a4.168,4.168,0,0,0,0,8.335h.7v1.665h-.7a4.166,4.166,0,0,0,0,8.332h.7v1.665h-.7a4.168,4.168,0,0,0,0,8.335h.7v1.666h-.7a4.166,4.166,0,0,0,0,8.332h.7v.969a3.734,3.734,0,0,0,3.727,3.732H228.8a3.735,3.735,0,0,0,3.729-3.732v-40.27A3.733,3.733,0,0,0,228.8,237.354Zm-38.637,40.024h-.7a1.162,1.162,0,1,1,0-2.325h.7Zm0-10h-.7a1.165,1.165,0,0,1,0-2.329h.7Zm0-10h-.7a1.163,1.163,0,0,1,0-2.326h.7Zm0-10h-.7a1.164,1.164,0,0,1,0-2.328h.7Zm39.363,33.97a.728.728,0,0,1-.726.727H193.893a.728.728,0,0,1-.725-.727v-6.3l.177.06a1.161,1.161,0,0,1,.795,1.1,1.5,1.5,0,0,0,3,0,4.186,4.186,0,0,0-3.816-4.152l-.123-.01-.038-7,.18.06a1.163,1.163,0,0,1,.792,1.105,1.5,1.5,0,0,0,3,0,4.189,4.189,0,0,0-3.816-4.153l-.123-.01-.038-7,.18.06a1.163,1.163,0,0,1,.792,1.1,1.5,1.5,0,1,0,3,0,4.19,4.19,0,0,0-3.816-4.15l-.123-.01-.038-7,.18.06a1.162,1.162,0,0,1,.792,1.1,1.5,1.5,0,1,0,3,0,4.189,4.189,0,0,0-3.825-4.152l-.12-.01-.031-.967a.727.727,0,0,1,.725-.73H228.8a.727.727,0,0,1,.726.726Z" transform="translate(-185.298 -237.354)" fill="#fff"/>
      <path id="Path_418" data-name="Path 418" d="M216.25,257.481c-.12-.07-.25-.14-.39-.207.14-.069.27-.137.39-.207a4.476,4.476,0,0,0-4.476-7.753c-.12.07-.246.148-.374.236.01-.154.015-.3.015-.443a4.476,4.476,0,1,0-8.952,0c0,.141.006.288.016.443-.129-.087-.254-.165-.375-.234a4.476,4.476,0,0,0-4.476,7.752c.122.07.251.139.39.207-.139.067-.268.138-.39.207a4.476,4.476,0,0,0,4.476,7.753c.121-.069.246-.148.375-.234-.01.153-.016.3-.016.441a4.476,4.476,0,0,0,8.952,0c0-.141,0-.288-.015-.441.128.086.253.163.374.234a4.476,4.476,0,0,0,4.476-7.753Zm-2.968,5.142a13.547,13.547,0,0,1-2.8-2.61,4.576,4.576,0,0,0,.338-.5,4.438,4.438,0,0,0,.265-.543,13.582,13.582,0,0,1,3.661,1.12,1.465,1.465,0,0,1,.535,2h0a1.462,1.462,0,0,1-2,.534Zm2-10.164a1.464,1.464,0,0,1-.535,2,13.526,13.526,0,0,1-3.661,1.12,4.527,4.527,0,0,0-.265-.541,4.591,4.591,0,0,0-.338-.5,13.545,13.545,0,0,1,2.8-2.61A1.462,1.462,0,0,1,215.28,252.459Zm-8.34,6.279a1.464,1.464,0,1,1,1.464-1.464A1.466,1.466,0,0,1,206.94,258.738Zm0-5.94a4.528,4.528,0,0,0-.6.04,13.608,13.608,0,0,1-.859-3.732,1.463,1.463,0,0,1,2.926,0,13.589,13.589,0,0,1-.861,3.732A4.5,4.5,0,0,0,206.94,252.8Zm-.6,8.911a4.508,4.508,0,0,0,1.206,0,13.566,13.566,0,0,1,.861,3.732,1.463,1.463,0,0,1-2.926,0A13.608,13.608,0,0,1,206.337,261.71Zm-5.737.915a1.473,1.473,0,0,1-1.11.145,1.447,1.447,0,0,1-.888-.681,1.466,1.466,0,0,1,.534-2,13.631,13.631,0,0,1,3.663-1.12,4.433,4.433,0,0,0,.265.543,4.306,4.306,0,0,0,.338.5,13.584,13.584,0,0,1-2.8,2.61Zm0-10.7a13.621,13.621,0,0,1,2.8,2.61,4.5,4.5,0,0,0-.338.5,4.67,4.67,0,0,0-.267.543,13.562,13.562,0,0,1-3.661-1.12,1.463,1.463,0,1,1,1.464-2.533Z" transform="translate(-180.252 -233.716)" fill="#fff"/>
    </g>
  </g>
</svg>
