<svg xmlns="http://www.w3.org/2000/svg" width="48" height="48" viewBox="0 0 48 48">
  <g id="Group_98" data-name="Group 98" transform="translate(-166 -906)">
    <rect id="Rectangle_52" data-name="Rectangle 52" width="48" height="48" transform="translate(166 906)" fill="none"/>
    <g id="Group_215" data-name="Group 215" transform="translate(8 34)">
      <g id="Group_214" data-name="Group 214" transform="translate(164 872)">
        <g id="Rectangle_84" data-name="Rectangle 84" fill="none" stroke="#fff" stroke-linecap="round" stroke-linejoin="round" stroke-width="3">
          <rect width="34" height="48" rx="5" stroke="none"/>
          <rect x="1.5" y="1.5" width="31" height="45" rx="3.5" fill="none"/>
        </g>
        <circle id="Ellipse_29" data-name="Ellipse 29" cx="3.375" cy="3.375" r="3.375" transform="translate(13.5 33.75)" fill="none" stroke="#fff" stroke-width="3"/>
        <path id="Path_507" data-name="Path 507" d="M195.3,271.321a8.425,8.425,0,0,1,11.9,0,1.6,1.6,0,0,0,2.258,0,1.592,1.592,0,0,0,0-2.258,11.539,11.539,0,0,0-2.927-2.13l-.409-.207.286-.36a6.594,6.594,0,1,0-10.318,0l.288.358-.409.209a11.573,11.573,0,0,0-2.928,2.13,1.6,1.6,0,0,0,2.258,2.258Zm5.952-12.478a3.41,3.41,0,1,1-3.411,3.41A3.412,3.412,0,0,1,201.254,258.843Z" transform="translate(-183.823 -246.799)" fill="#fff"/>
      </g>
    </g>
  </g>
</svg>
