<svg xmlns="http://www.w3.org/2000/svg" width="48" height="48" viewBox="0 0 48 48">
  <g id="Group_131" data-name="Group 131" transform="translate(552 -4998)">
    <rect id="Rectangle_57" data-name="Rectangle 57" width="48" height="48" transform="translate(-552 4998)" fill="none"/>
    <g id="Group_143" data-name="Group 143" transform="translate(-550.5 4998.75)">
      <path id="Path_448" data-name="Path 448" d="M189.552,249.6a6.479,6.479,0,0,0-6.42,7.333l2.7,20.279a6.5,6.5,0,0,0,6.42,5.621h27.5a6.5,6.5,0,0,0,6.42-5.621l2.7-20.279a6.481,6.481,0,0,0-6.422-7.333Zm36.163,6.913-2.7,20.276a3.3,3.3,0,0,1-3.256,2.852h-27.5A3.3,3.3,0,0,1,189,276.784l-2.7-20.276a3.284,3.284,0,0,1,3.257-3.72h32.905a3.282,3.282,0,0,1,3.258,3.72Z" transform="translate(-183.075 -235.578)" fill="#fff"/>
      <path id="Path_449" data-name="Path 449" d="M188.215,248.115h32.04a1.6,1.6,0,1,0,0-3.192h-32.04a1.6,1.6,0,1,0,0,3.192Z" transform="translate(-181.304 -237.914)" fill="#fff"/>
      <path id="Path_450" data-name="Path 450" d="M190.216,243.443h26.033a1.6,1.6,0,1,0,0-3.193H190.216a1.6,1.6,0,0,0,0,3.193Z" transform="translate(-180.302 -240.25)" fill="#fff"/>
      <path id="Path_451" data-name="Path 451" d="M195.3,271.321a8.425,8.425,0,0,1,11.9,0,1.6,1.6,0,0,0,2.258,0,1.592,1.592,0,0,0,0-2.258,11.539,11.539,0,0,0-2.927-2.13l-.409-.207.286-.36a6.594,6.594,0,1,0-10.318,0l.288.358-.409.209a11.573,11.573,0,0,0-2.928,2.13,1.6,1.6,0,0,0,2.258,2.258Zm5.952-12.478a3.41,3.41,0,1,1-3.411,3.41A3.412,3.412,0,0,1,201.254,258.843Z" transform="translate(-178.323 -232.549)" fill="#fff"/>
    </g>
  </g>
</svg>
