<svg id="Group_263" data-name="Group 263" xmlns="http://www.w3.org/2000/svg" width="48" height="50.34" viewBox="0 0 48 50.34">
  <rect id="Rectangle_57" data-name="Rectangle 57" width="48" height="48" transform="translate(0 2.34)" fill="none"/>
  <g id="Group_146" data-name="Group 146" transform="translate(1.501)">
    <path id="Path_452" data-name="Path 452" d="M281.586,240.125H248.868a3.294,3.294,0,0,0-3.29,3.29v1.618a4.016,4.016,0,0,0,0,8.033v1.9a4.017,4.017,0,0,0,0,8.034v1.9a4.017,4.017,0,0,0,0,8.034v1.9a4.016,4.016,0,0,0,0,8.033V284.5a3.3,3.3,0,0,0,3.29,3.29h32.719a3.3,3.3,0,0,0,3.29-3.29v-41.08A3.3,3.3,0,0,0,281.586,240.125Zm0,44.717H252.52V243.069h29.067a.348.348,0,0,1,.347.347V284.5A.348.348,0,0,1,281.586,284.842Zm-33.066-41.427a.348.348,0,0,1,.347-.347h.709v2.111a3.976,3.976,0,0,0-1.055-.146Zm0,4.562a1.073,1.073,0,0,1,1.055,1.072v6.068a3.978,3.978,0,0,0-1.055-.147Zm0,9.936a1.075,1.075,0,0,1,1.055,1.073v6.068a4.044,4.044,0,0,0-1.055-.147Zm0,9.938a1.075,1.075,0,0,1,1.055,1.073v6.066a4.038,4.038,0,0,0-1.055-.146Zm0,9.936a1.075,1.075,0,0,1,1.055,1.073v5.982h-.709a.348.348,0,0,1-.347-.347Zm-2.944,0v2.147a1.073,1.073,0,0,1,0-2.147Zm0-9.936V270a1.073,1.073,0,0,1,0-2.147Zm0-9.937v2.147a1.073,1.073,0,0,1,0-2.147Zm0-9.936v2.145a1.073,1.073,0,0,1,0-2.145Z" transform="translate(-241.578 -240.125)" fill="#fff"/>
    <path id="Path_453" data-name="Path 453" d="M272.352,265.738a12.2,12.2,0,0,0-5.358-4.436,6.7,6.7,0,1,0-9.594-.029,12.17,12.17,0,0,0-5.442,4.49,1.552,1.552,0,0,0,.426,2.156,1.511,1.511,0,0,0,.851.258,1.626,1.626,0,0,0,.315-.032,1.557,1.557,0,0,0,.992-.653,9.171,9.171,0,0,1,15.226-.018,1.556,1.556,0,0,0,2.818-.569A1.54,1.54,0,0,0,272.352,265.738Zm-6.551-9.121a3.589,3.589,0,1,1-3.589-3.589A3.594,3.594,0,0,1,265.8,256.618Z" transform="translate(-236.508 -235.217)" fill="#fff"/>
  </g>
</svg>
