<svg xmlns="http://www.w3.org/2000/svg" width="42.303" height="48" viewBox="0 0 42.303 48">
  <g id="Group_294" data-name="Group 294" transform="translate(-30.386 -0.001)">
    <g id="Group_294-2" data-name="Group 294" transform="translate(30.386 0.001)">
      <path id="Path_508" data-name="Path 508" d="M72.689,14.021l-2.4-6.607a4.223,4.223,0,0,0-5.407-2.521L60.456,6.5c.007-.043.015-.086.021-.13a5.5,5.5,0,0,0-2.283-5.265,5.705,5.705,0,0,0-9.01,3.752l-.632,4.074L45.285,6.046a5.705,5.705,0,0,0-7.59,8.521c.059.053.119.1.18.154l-4.712,1.715a4.216,4.216,0,0,0-2.521,5.407l2.4,6.607,2.995-1.083V43.782A4.207,4.207,0,0,0,40.241,48H68.366a4.223,4.223,0,0,0,4.219-4.219V22.5H49.39Zm-6.85-6.486a1.408,1.408,0,0,1,1.8.84l1.443,3.964L55.87,17.15l-1.924-5.286ZM51.963,5.283a2.893,2.893,0,0,1,4.569-1.906,2.7,2.7,0,0,1-.718,4.815l-2.83,1.03-1.729.629Zm-.66,7.543,1.924,5.286-2.643.962-1.924-5.286ZM40.643,7.559a2.871,2.871,0,0,1,2.779.594l3.645,3.222L42.5,13.039a2.851,2.851,0,0,1-2.921-.566A2.892,2.892,0,0,1,40.643,7.559ZM34.728,24.845l-1.443-3.964a1.406,1.406,0,0,1,.84-1.8L46.018,14.75l1.924,5.286Zm23.794.469H69.79V43.782a1.424,1.424,0,0,1-1.425,1.406H58.522Zm-5.625,0h2.831V45.188H52.9Zm-2.794,0V45.188H40.241a1.408,1.408,0,0,1-1.406-1.406V26.343l2.828-1.029Z" transform="translate(-30.386 -0.001)" fill="#fff"/>
    </g>
  </g>
</svg>
