<svg id="Group_261" data-name="Group 261" xmlns="http://www.w3.org/2000/svg" width="48" height="48" viewBox="0 0 48 48">
  <rect id="Rectangle_57" data-name="Rectangle 57" width="48" height="46.774" transform="translate(0 1.226)" fill="none"/>
  <path id="Path_436" data-name="Path 436" d="M318.867,270.47v-7.917a1.392,1.392,0,0,0-.482-1.044l-7.019-6.273.355-.259a18.3,18.3,0,0,1,4.874-2.5,1.581,1.581,0,0,0,1.017-.843,19.335,19.335,0,0,1,3.475-5.243,19.089,19.089,0,0,1,5.219-3.319,1.516,1.516,0,0,0,.977-1.075,1.377,1.377,0,0,0-.448-1.319,23.086,23.086,0,0,0-4.369-3.107,1.736,1.736,0,0,0-2.237.491,1.392,1.392,0,0,0,.544,2.02c.553.3,1.107.642,1.641,1.006l.462.316-.485.285a22.145,22.145,0,0,0-3.606,2.624,16.891,16.891,0,0,0-3,3.941l-.242.416-.389-.313a34.523,34.523,0,0,0-15.065-7.374l-.99-.19.859-.482a21.674,21.674,0,0,1,13.455-2.6,1.758,1.758,0,0,0,1.208-.282,1.432,1.432,0,0,0,.63-.968,1.353,1.353,0,0,0-.309-1.089,1.664,1.664,0,0,0-1.074-.571,25.743,25.743,0,0,0-10.651.908,25.387,25.387,0,0,0-8.108,4.2l-.277.214-1.61-1.359a1.75,1.75,0,0,0-2.3.069,1.374,1.374,0,0,0-.438,1.052,1.4,1.4,0,0,0,.514,1.024l1.543,1.3-.251.267a20.146,20.146,0,0,0-5.671,13.465,19.5,19.5,0,0,0,6.736,14.956,1.727,1.727,0,0,0,1.481.4,1.59,1.59,0,0,0,1.183-.9,15.336,15.336,0,0,1,3.536-4.569,24.3,24.3,0,0,1,5.963-3.264,1.535,1.535,0,0,0,.908-.9,15.579,15.579,0,0,1,2.4-3.972l.28-.341,6.506,5.814v7.251l-8.811,7.952a1.343,1.343,0,0,0-.352,1.6,1.609,1.609,0,0,0,1.5.908,1.737,1.737,0,0,0,1.151-.43l6.508-5.873v4.835a1.636,1.636,0,0,0,3.256,0v-4.783l6.451,5.822a1.734,1.734,0,0,0,1.151.43,1.614,1.614,0,0,0,1.506-.908,1.345,1.345,0,0,0-.355-1.6Zm-17.282-9.438a19.506,19.506,0,0,0-4.333,2.719,19.854,19.854,0,0,0-2.79,3.116l-.316.439-.35-.419a16.425,16.425,0,0,1-.982-20.046l.529-.793.217.9c.759,3.178,2.784,8.1,8.134,13.512l.343.345Zm6.5-7.056a18.785,18.785,0,0,0-3.5,4.262l-.278.46-.386-.4a27.582,27.582,0,0,1-6.817-10.669,16.082,16.082,0,0,1-.742-3.714l-.029-.417.461.026a21.476,21.476,0,0,1,4.115.671,32.327,32.327,0,0,1,11.777,6.116l.435.344-.5.254A20.427,20.427,0,0,0,308.084,253.976Z" transform="translate(-283.615 -234.601)" fill="#fff"/>
</svg>
