<svg id="Group_262" data-name="Group 262" xmlns="http://www.w3.org/2000/svg" width="47.121" height="40.39" viewBox="0 0 47.121 40.39">
  <path id="Path_442" data-name="Path 442" d="M148.388,67.009a5.235,5.235,0,1,1-5.235-5.235A5.235,5.235,0,0,1,148.388,67.009Zm-2.991,0a2.244,2.244,0,1,0-2.244,2.244A2.244,2.244,0,0,0,145.4,67.009Z" transform="translate(-130.439 -55.043)" fill="#fff"/>
  <path id="Path_443" data-name="Path 443" d="M155.863,62.148V81.873a1.6,1.6,0,0,1,0,.219,1.5,1.5,0,0,1-2.992-.219V79.52l-9.124-10.885-13.854,17.62-.181.227,4.591,5.955h1.273a1.6,1.6,0,0,1,.219,0,1.5,1.5,0,0,1-.219,2.992H115.851a7.113,7.113,0,0,1-7.105-7.105V62.148a7.113,7.113,0,0,1,7.105-7.1h32.908A7.112,7.112,0,0,1,155.863,62.148Zm-2.991,0a4.119,4.119,0,0,0-4.113-4.113H115.851a4.119,4.119,0,0,0-4.113,4.113V88.329a4.119,4.119,0,0,0,4.113,4.113h14.674l-9.063-11.76L112.3,90.853a1.5,1.5,0,1,1-2.371-1.825L120.275,77.31a1.469,1.469,0,0,1,.185-.185,1.551,1.551,0,0,1,2.186.185l5.184,6.727,14.705-18.7a1.49,1.49,0,0,1,1.15-.571,1.4,1.4,0,0,1,1.171.535l8.016,9.563Z" transform="translate(-108.746 -55.043)" fill="#fff"/>
  <path id="Path_501" data-name="Path 501" d="M115.627,58.043a3.885,3.885,0,0,0-3.881,3.881V88.552a3.885,3.885,0,0,0,3.881,3.881h33.359a3.885,3.885,0,0,0,3.881-3.881V61.924a3.885,3.885,0,0,0-3.881-3.881H115.627m0-3h33.359a6.881,6.881,0,0,1,6.881,6.881V88.552a6.881,6.881,0,0,1-6.881,6.881H115.627a6.881,6.881,0,0,1-6.881-6.881V61.924a6.881,6.881,0,0,1,6.881-6.881Z" transform="translate(-108.746 -55.043)" fill="#fff"/>
</svg>
