<svg xmlns="http://www.w3.org/2000/svg">
    <symbol id="slider-arrow" width="12.068" height="26.219" viewBox="0 0 12.068 26.219">
        <path d="M-7,0l-8,12,8,12" transform="translate(17.404 1.109)" fill="none" stroke="#3BB781" stroke-width="4"/>
    </symbol>
    <symbol id="slider-arrow-thin" width="12.027" height="33.06" viewBox="0 0 12.027 33.06">
        <path id="Path_366" d="M-5,0-15,16-5,32" transform="translate(16.179 0.53)" fill="none" stroke="#0ba6c1" stroke-width="2"/>
    </symbol>
    <symbol id="preference0" width="27.2" height="30.92" viewBox="0 0 27.2 30.92">
        <g transform="translate(-242.4 -240.54)">
            <path id="Path_416" d="M268.943,259.66a2.8,2.8,0,0,0-2.143-4.6h-5.1a17.821,17.821,0,0,0,.7-4.46v-.9a3.7,3.7,0,0,0-3.7-3.7h-.9a1,1,0,0,0-.97.757l-.49,1.962c-.636,2.541-2.707,5.62-4.969,6.234a2.786,2.786,0,0,0-2.571-1.693h-5.4a1,1,0,0,0-1,1v16.2a1,1,0,0,0,1,1h5.4a2.817,2.817,0,0,0,2.488-1.517l3.01,1a9.955,9.955,0,0,0,3.162.514H265a2.8,2.8,0,0,0,2.642-3.73,2.8,2.8,0,0,0,1.3-4.47,2.794,2.794,0,0,0,0-3.6Zm-2.143-1H265a1,1,0,1,0,0,2h1.8a.8.8,0,1,1,0,1.6H265a1,1,0,1,0,0,2h1.8a.8.8,0,1,1,0,1.6H265a1,1,0,1,0,0,2,.8.8,0,1,1,0,1.6h-7.54a8.022,8.022,0,0,1-2.53-.41l-3.33-1.111V256.957a7.457,7.457,0,0,0,4.017-2.643,13.214,13.214,0,0,0,2.662-5.11l.3-1.2h.119a1.7,1.7,0,0,1,1.7,1.7v.9a14.333,14.333,0,0,1-.826,4.46H257.8a1,1,0,0,0,0,2h9a.8.8,0,1,1,0,1.6Zm-17.2-2.6v12.6a.8.8,0,0,1-.8.8h-4.4v-14.2h4.4A.8.8,0,0,1,249.6,256.06Z" fill="#fff"/>
            <path id="Path_417" d="M247,265.86a1,1,0,1,0,1,1A1,1,0,0,0,247,265.86Z" fill="#fff"/>
            <path id="Path_418" d="M259.6,244.4a1,1,0,0,0,1-1v-1.86a1,1,0,1,0-2,0v1.86A1,1,0,0,0,259.6,244.4Z" fill="#fff"/>
            <path id="Path_419" d="M254.438,245.953a1,1,0,1,0,1.415-1.415l-1.273-1.273a1,1,0,1,0-1.415,1.415Z" fill="#fff"/>
            <path id="Path_420" d="M264.055,246.245a1,1,0,0,0,.707-.292l1.272-1.273a1,1,0,0,0-1.413-1.415l-1.274,1.273a1,1,0,0,0,.708,1.707Z" fill="#fff"/>
        </g>
    </symbol>
    <symbol id="preference1" width="28.18" height="31.345" viewBox="0 0 28.18 31.345">
        <g transform="translate(-241.91 -240.328)">
            <path id="Path_421" d="M265.964,247.574a14.039,14.039,0,0,0-8.961-4.1v-1.142h1.249a1,1,0,1,0,0-2h-4.5a1,1,0,1,0,0,2H255v1.142a14.022,14.022,0,0,0-6.392,2.058l-.816-.818a2.325,2.325,0,0,0-3.29,0l-1.319,1.322a2.326,2.326,0,0,0,0,3.283l.822.825a14.091,14.091,0,1,0,21.962-2.571Zm-21.365-.12,1.319-1.322a.32.32,0,0,1,.451,0l.591.594c-.32.269-.631.554-.923.848s-.575.6-.845.923l-.592-.594a.317.317,0,0,1,0-.449ZM256,269.667a12.112,12.112,0,1,1,12.084-12.111A12.112,12.112,0,0,1,256,269.667Z" fill="#fff"/>
            <path id="Path_422" d="M256,246.976a10.58,10.58,0,1,0,10.56,10.58A10.582,10.582,0,0,0,256,246.976Zm6.545,10.58a1,1,0,0,0,1,1h.947A8.6,8.6,0,0,1,257,266.07V265.1a1,1,0,0,0-2.006,0v.966a8.6,8.6,0,0,1-7.492-7.511h.947a1,1,0,1,0,0-2.006h-.947A8.6,8.6,0,0,1,255,249.041v.966a1,1,0,0,0,2.006,0v-.966a8.6,8.6,0,0,1,7.492,7.512h-.947A1,1,0,0,0,262.545,257.556Z" fill="#fff"/>
            <path id="Path_423" d="M258.252,256.938h-1.2v-3.6a1,1,0,1,0-2.006,0v4.605a1,1,0,0,0,1,1h2.2a1,1,0,0,0,0-2.006Z" fill="#fff"/>
        </g>
    </symbol>
    <symbol id="preference2" width="32" height="32" viewBox="0 0 32 32">
        <g transform="translate(-240 -240)">
            <rect id="Rectangle_34" width="2" height="2" rx="1" transform="translate(244 244)" fill="#fff"/>
            <rect id="Rectangle_35" width="2" height="2" rx="1" transform="translate(248 244)" fill="#fff"/>
            <path id="Path_415" d="M272,250.524v-9.048A1.476,1.476,0,0,0,270.524,240H241.476A1.476,1.476,0,0,0,240,241.476v9.048A1.476,1.476,0,0,0,241.476,252H242v18h-1a1,1,0,0,0-1,1h0a1,1,0,0,0,1,1h4a1,1,0,0,0,1-1h0a1,1,0,0,0-1-1h-1V252h2v14h20V252h2v18h-1a1,1,0,0,0-1,1h0a1,1,0,0,0,1,1h4a1,1,0,0,0,1-1h0a1,1,0,0,0-1-1h-1V252h.524A1.476,1.476,0,0,0,272,250.524ZM248.943,264l3.308-4.631,2.957,1.972,3.675-4.593L263.234,264ZM264,252v9.39l-4.883-8.138-4.325,5.407-3.043-2.028L248,261.88V250h16Zm2-2v-2H246v2h-4v-8h28v8Z" fill="#fff"/>
            <rect id="Rectangle_36" width="16" height="2" rx="1" transform="translate(252 244)" fill="#fff"/>
        </g>
    </symbol>
    <symbol id="preference3" width="32" height="28.463" viewBox="0 0 32 28.463">
        <g transform="translate(-240 -241.768)">
            <path id="Path_428" d="M271.93,247.611a2.019,2.019,0,0,0-.945-1.234l-5.752-3.321a2.034,2.034,0,0,0-2.775.743l-1.107,1.917V243.8a2.033,2.033,0,0,0-2.03-2.031h-6.642a2.033,2.033,0,0,0-2.031,2.031v1.917l-1.106-1.917a2.033,2.033,0,0,0-2.774-.743l-5.753,3.321a2.034,2.034,0,0,0-.743,2.774l10.49,18.169a3.861,3.861,0,0,0,3.721,2.911h3.034a3.861,3.861,0,0,0,3.721-2.911l5.3-9.173c.008-.013.022-.021.03-.034l5.164-8.962A2.012,2.012,0,0,0,271.93,247.611Zm-29.924.54,5.8-3.351,1.367,2.369-5.8,3.35Zm8.642,14.678-.126.072-1.382-2.394,1.508-.87Zm0-5.5-2.509,1.448-1.382-2.394,3.891-2.246Zm0-5.5-4.892,2.823-1.382-2.393,5.8-3.35.472.817Zm8.7,14.573a1.835,1.835,0,0,1-1.833,1.833h-3.034a1.835,1.835,0,0,1-1.833-1.833v-3.563h6.7Zm0-5.564h-6.7v-2.764h6.7Zm0-4.766h-6.7V253.3h6.7Zm0-4.766h-6.7v-2.764h6.7Zm0-4.766h-6.7l.024-2.764h4.377l2.294.029Zm2,3.186.473-.817,5.8,3.35-1.263,2.195c0,.006-.012.01-.016.017l-.1.181-4.893-2.823Zm.127,13.182-.127-.073v-3.192l1.509.87Zm-.127-5.576v-3.192l3.892,2.246-1.382,2.394Zm7.276-6.807-5.8-3.347,1.4-2.382,5.752,3.321a.029.029,0,0,1,.011.04Z" fill="#fff"/>
            <circle id="Ellipse_8" cx="1" cy="1" r="1" transform="translate(255 264.229)" fill="#fff"/>
        </g>
    </symbol>
    <symbol id="preference4" width="31.2" height="31.2" viewBox="0 0 31.2 31.2">
        <g transform="translate(-240.4 -240.4)">
            <path id="Path_424" d="M270.592,269.584h-3.9v-8.8a1.918,1.918,0,0,0-1.916-1.916h-1.271a7.986,7.986,0,0,0-2.083-3.858,6.592,6.592,0,0,0-2.078-1.4,9.181,9.181,0,0,0,2.816-6.473,6.893,6.893,0,0,0-1.806-5.083,6.558,6.558,0,0,0-8.715,0,6.9,6.9,0,0,0-1.806,5.083,9.182,9.182,0,0,0,2.817,6.473,6.593,6.593,0,0,0-2.078,1.4,8,8,0,0,0-2.083,3.858h-1.271a1.919,1.919,0,0,0-1.917,1.916v8.8h-3.9a1.008,1.008,0,1,0,0,2.016h29.184a1.008,1.008,0,0,0,0-2.016ZM256,242.417a3.708,3.708,0,0,1,3.926,2.859,5.148,5.148,0,0,1-1.692-.555,2.145,2.145,0,0,0-1.49-.306,2.809,2.809,0,0,0-1.136.628,5.687,5.687,0,0,1-3.712,1.219C252.242,242.919,254.609,242.417,256,242.417Zm.857,4.209c.082-.064.189-.148.267-.2.057.026.125.06.188.091l.031.015a7.272,7.272,0,0,0,2.8.8,7.378,7.378,0,0,1-1.323,3.839,3.085,3.085,0,0,1-5.641,0,7.534,7.534,0,0,1-1.217-2.893C255,248.1,256.159,247.178,256.857,246.626Zm-1.341,8.445h.968a4.947,4.947,0,0,1,4.939,3.8H250.577A4.948,4.948,0,0,1,255.516,255.071Zm9.164,5.812v8.7H247.321v-8.7Z" fill="#fff"/>
            <path id="Path_425" d="M256,265.727a1.008,1.008,0,1,0-1.008-1.008A1.01,1.01,0,0,0,256,265.727Z" fill="#fff"/>
        </g>
    </symbol>
    <symbol id="preference5" width="31.55" height="25.953" viewBox="0 0 31.55 25.953">
        <g transform="translate(-200.225 -203.024)">
            <path id="Path_426" d="M228.53,203.024H206.835a3.262,3.262,0,0,0-3.226,3.014h-.138a3.252,3.252,0,0,0-3.246,3.231v16.456a3.273,3.273,0,0,0,3.246,3.252h21.694a3.264,3.264,0,0,0,3.226-3.014h.138a3.251,3.251,0,0,0,3.246-3.232V206.276A3.271,3.271,0,0,0,228.53,203.024ZM228.4,221.18a4.184,4.184,0,0,0,.768-.728l.619-.8v3.078a1.262,1.262,0,0,1-1.26,1.247H228.4ZM202.21,209.271a1.265,1.265,0,0,1,1.261-1.249h21.693a1.252,1.252,0,0,1,1.253,1.247v3.868c-.035,0-.07.005-.105.005h-4.141a4.362,4.362,0,0,0,0,8.723h4.148c.031,0,.061,0,.091-.006l.007,3.866a1.271,1.271,0,0,1-1.255,1.267H203.473a1.284,1.284,0,0,1-1.263-1.267Zm19.962,10.616a2.38,2.38,0,0,1,0-4.76H226.3a3.567,3.567,0,0,0,1.545-.349,3.633,3.633,0,0,0,1.313-1.056l.621-.8.005,3.489-2.188,2.839a1.663,1.663,0,0,1-1.289.639Zm2.992-13.849H205.6a1.272,1.272,0,0,1,1.231-1.029h21.691a1.281,1.281,0,0,1,1.262,1.268v3.4l-1.387,1.788v-2.2A3.238,3.238,0,0,0,225.164,206.038Z" fill="#fff"/>
            <path id="Path_427" d="M223.778,216.515h-1.721a.993.993,0,1,0,0,1.985h1.721a.993.993,0,1,0,0-1.985Z" fill="#fff"/>
        </g>
    </symbol>
    <symbol id="bird" viewBox="0 0 25.109 10.034">
        <path d="M-7,0l-8,12,8,12" transform="translate(0.555 -6.168) rotate(-90)" fill="none" stroke="currentColor" stroke-width="2"/>
    </symbol>
    <symbol id="album-arrow" viewBox="0 0 12.068 26.219">
        <path d="M-7,0l-8,12,8,12" transform="translate(17.404 1.109)" fill="none" stroke="#fff" stroke-width="4"/>
    </symbol>
    <symbol id="checked" width="14.121" height="11.182" viewBox="0 0 14.121 11.182">
        <path d="M-11,2l-4,4,8,8" transform="translate(-0.939 -5.939) rotate(-90)" fill="none" stroke="currentColor" stroke-width="3"/>
    </symbol>
    <symbol id="def-arrow" width="16" height="16" viewBox="0 0 16 16">
        <g transform="translate(-438 -297)">
            <rect width="16" height="16" transform="translate(438 297)" fill="none"/>
            <g transform="translate(-2.5 -4.5)">
                <line x1="12" transform="translate(442.5 309.5)" fill="none" stroke="#0ba6c1" stroke-width="2"/>
                <path d="M0,0-4,5l4,5" transform="translate(446.5 304.5)" fill="none" stroke="#0ba6c1" stroke-width="2"/>
            </g>
        </g>
    </symbol>
    <symbol id="persantage" width="14.121" height="11.182" viewBox="0 0 14.121 11.182">
        <path d="M-11,2l-4,4,8,8" transform="translate(-0.939 -5.939) rotate(-90)" fill="none" stroke="#fff" stroke-width="3"/>
    </symbol>
    <symbol id="alert" width="14.121" height="11.182" viewBox="0 0 14.121 11.182">
        <path d="M-11,2l-4,4,8,8" transform="translate(-0.939 -5.939) rotate(-90)" fill="none" stroke="#fff" stroke-width="3"/>
    </symbol>
    <symbol id="close" width="10.414" height="10.414" viewBox="0 0 10.414 10.414">
        <g transform="translate(-1397.793 -927.793)">
            <line x2="9" y2="9" transform="translate(1398.5 928.5)" fill="none" stroke="#888" stroke-width="2"/>
            <line y1="9" x2="9" transform="translate(1398.5 928.5)" fill="none" stroke="#888" stroke-width="2"/>
        </g>
    </symbol>
    <symbol id="visa" width="51.128" height="16" viewBox="0 0 51.128 16">
        <g transform="translate(0 -100.23)">
            <g transform="translate(4.777 100.23)">
                <g transform="translate(0 0)">
                    <path d="M43.383,100.23,40.817,116.2h4.1l2.564-15.968Zm12.371,6.5c-1.433-.708-2.312-1.185-2.312-1.909.018-.658.743-1.333,2.363-1.333a7.137,7.137,0,0,1,3.055.591l.372.166.558-3.341a10.352,10.352,0,0,0-3.681-.658c-4.05,0-6.9,2.106-6.92,5.118-.033,2.223,2.042,3.456,3.595,4.2,1.587.759,2.127,1.251,2.127,1.925-.018,1.035-1.283,1.513-2.464,1.513a8.341,8.341,0,0,1-3.849-.823l-.54-.246-.574,3.472a12.809,12.809,0,0,0,4.574.824c4.3,0,7.105-2.074,7.14-5.284C59.214,109.185,58.119,107.837,55.755,106.734Zm14.551-6.455H67.132a2.032,2.032,0,0,0-2.144,1.285L58.9,116.2h4.3l1.185-3.168H69.2l.615,3.181h3.8Zm-4.726,9.553c.083.008,1.652-5.172,1.652-5.172l1.249,5.172Zm-28.189-9.6-4.018,10.849-.438-2.139a11.921,11.921,0,0,0-5.672-6.484l3.68,13.726h4.34l6.449-15.95H37.39Z" transform="translate(-27.262 -100.23)" fill="currentColor"/>
                </g>
            </g>
            <path d="M9.1,102.3a2.68,2.68,0,0,0-2.668-2.056H.066l-.066.3c4.964,1.224,9.131,4.99,10.483,8.532Z" transform="translate(0 -0.015)" fill="currentColor"/>
        </g>
    </symbol>
    <symbol id="close-modal" viewBox="0 0 32 32">
        <g transform="translate(-1280 -276)">
            <rect width="32" height="32" transform="translate(1280 276)" fill="none"/>
            <g transform="translate(69.558 -15.444)">
            <rect width="4" height="32" transform="translate(1236.07 294.444) rotate(45)" fill="currentColor"/>
            <rect width="4" height="32" transform="translate(1238.899 317.071) rotate(135)" fill="currentColor"/>
            </g>
        </g>
    </symbol>
    <symbol id="ar-album" viewBox="0 0 64 64">
        <g transform="translate(-166 -906)">
            <rect width="64" height="64" transform="translate(166 906)" fill="none"/>
            <g transform="translate(166 906)">
                <path d="M243.3,237.354H196.758a4.976,4.976,0,0,0-4.97,4.97v1.292h-.936a5.557,5.557,0,0,0,0,11.114h.936v2.22h-.936a5.555,5.555,0,0,0,0,11.11h.936v2.22h-.936a5.557,5.557,0,0,0,0,11.114h.936v2.222h-.936a5.555,5.555,0,0,0,0,11.11h.936v1.292a4.979,4.979,0,0,0,4.97,4.976H243.3a4.98,4.98,0,0,0,4.972-4.976V242.324A4.978,4.978,0,0,0,243.3,237.354ZM191.788,290.72h-.936a1.55,1.55,0,0,1,0-3.1h.936Zm0-13.33h-.936a1.553,1.553,0,0,1,0-3.106h.936Zm0-13.334h-.936a1.551,1.551,0,0,1,0-3.1h.936Zm0-13.332h-.936a1.552,1.552,0,0,1,0-3.1h.936Zm52.484,45.294a.97.97,0,0,1-.968.97H196.758a.97.97,0,0,1-.966-.97v-8.4l.236.08a1.548,1.548,0,0,1,1.06,1.472,2,2,0,0,0,4.006,0,5.582,5.582,0,0,0-5.088-5.536l-.164-.014-.05-9.336.24.08a1.55,1.55,0,0,1,1.056,1.474,2,2,0,0,0,4.006,0,5.585,5.585,0,0,0-5.088-5.538l-.164-.014-.05-9.334.24.08a1.551,1.551,0,0,1,1.056,1.47,2,2,0,1,0,4.006,0,5.587,5.587,0,0,0-5.088-5.534l-.164-.014-.05-9.336.24.08a1.549,1.549,0,0,1,1.056,1.47,2,2,0,1,0,4.006,0,5.585,5.585,0,0,0-5.1-5.536l-.16-.014-.042-1.29a.97.97,0,0,1,.966-.974H243.3a.969.969,0,0,1,.968.968Z" transform="translate(-185.298 -237.354)" fill="currentColor"/>
                <path d="M223.2,261.765c-.16-.094-.334-.186-.52-.276.186-.092.36-.182.52-.276a5.968,5.968,0,0,0-5.968-10.338c-.16.094-.328.2-.5.314.014-.206.02-.4.02-.59a5.968,5.968,0,1,0-11.936,0c0,.188.008.384.022.59-.172-.116-.338-.22-.5-.312a5.968,5.968,0,0,0-5.968,10.336c.162.094.334.186.52.276-.186.09-.358.184-.52.276a5.968,5.968,0,0,0,5.968,10.338c.162-.092.328-.2.5-.312-.014.2-.022.4-.022.588a5.968,5.968,0,0,0,11.936,0c0-.188-.006-.384-.02-.588.17.114.338.218.5.312a5.967,5.967,0,0,0,8.748-6.714A5.919,5.919,0,0,0,223.2,261.765Zm-3.958,6.856a18.062,18.062,0,0,1-3.736-3.48,6.094,6.094,0,0,0,.45-.668,5.913,5.913,0,0,0,.354-.724,18.108,18.108,0,0,1,4.882,1.494,1.953,1.953,0,0,1,.714,2.664v0a1.949,1.949,0,0,1-2.664.712Zm2.664-13.552a1.952,1.952,0,0,1-.714,2.664,18.036,18.036,0,0,1-4.882,1.494,6.034,6.034,0,0,0-.354-.722,6.12,6.12,0,0,0-.45-.67,18.061,18.061,0,0,1,3.736-3.48A1.949,1.949,0,0,1,221.91,255.069Zm-11.12,8.372a1.952,1.952,0,1,1,1.952-1.952A1.954,1.954,0,0,1,210.79,263.441Zm0-7.92a6.036,6.036,0,0,0-.8.054,18.144,18.144,0,0,1-1.146-4.976,1.951,1.951,0,0,1,3.9,0,18.118,18.118,0,0,1-1.148,4.976A5.992,5.992,0,0,0,210.79,255.521Zm-.8,11.882a6.011,6.011,0,0,0,1.608,0,18.087,18.087,0,0,1,1.148,4.976,1.951,1.951,0,0,1-3.9,0A18.144,18.144,0,0,1,209.986,267.4Zm-7.65,1.22a1.964,1.964,0,0,1-1.48.194,1.93,1.93,0,0,1-1.184-.908,1.955,1.955,0,0,1,.712-2.666,18.174,18.174,0,0,1,4.884-1.494,5.909,5.909,0,0,0,.354.724,5.737,5.737,0,0,0,.45.668,18.112,18.112,0,0,1-3.736,3.48Zm0-14.268a18.161,18.161,0,0,1,3.736,3.48,6,6,0,0,0-.45.668,6.224,6.224,0,0,0-.356.724,18.083,18.083,0,0,1-4.882-1.494,1.951,1.951,0,1,1,1.952-3.378Z" transform="translate(-175.206 -230.077)" fill="currentColor"/>
            </g>
        </g>
    </symbol>
    <symbol id="personal-album" viewBox="0 0 64 64">
        <g transform="translate(-134 -882)">
            <rect width="64" height="64" transform="translate(134 882)" fill="none"/>
            <g transform="translate(134 882)">
                <path d="M243.3,237.354H196.758a4.976,4.976,0,0,0-4.97,4.97v1.292h-.936a5.557,5.557,0,0,0,0,11.114h.936v2.22h-.936a5.555,5.555,0,0,0,0,11.11h.936v2.22h-.936a5.557,5.557,0,0,0,0,11.114h.936v2.222h-.936a5.555,5.555,0,0,0,0,11.11h.936v1.292a4.979,4.979,0,0,0,4.97,4.976H243.3a4.98,4.98,0,0,0,4.972-4.976V242.324A4.978,4.978,0,0,0,243.3,237.354ZM191.788,290.72h-.936a1.55,1.55,0,0,1,0-3.1h.936Zm0-13.33h-.936a1.553,1.553,0,0,1,0-3.106h.936Zm0-13.334h-.936a1.551,1.551,0,0,1,0-3.1h.936Zm0-13.332h-.936a1.552,1.552,0,0,1,0-3.1h.936Zm52.484,45.294a.97.97,0,0,1-.968.97H196.758a.97.97,0,0,1-.966-.97v-8.4l.236.08a1.548,1.548,0,0,1,1.06,1.472,2,2,0,0,0,4.006,0,5.582,5.582,0,0,0-5.088-5.536l-.164-.014-.05-9.336.24.08a1.55,1.55,0,0,1,1.056,1.474,2,2,0,0,0,4.006,0,5.585,5.585,0,0,0-5.088-5.538l-.164-.014-.05-9.334.24.08a1.551,1.551,0,0,1,1.056,1.47,2,2,0,1,0,4.006,0,5.587,5.587,0,0,0-5.088-5.534l-.164-.014-.05-9.336.24.08a1.549,1.549,0,0,1,1.056,1.47,2,2,0,1,0,4.006,0,5.585,5.585,0,0,0-5.1-5.536l-.16-.014-.042-1.29a.97.97,0,0,1,.966-.974H243.3a.969.969,0,0,1,.968.968Z" transform="translate(-185.298 -237.354)" fill="currentColor"/>
                <path d="M208.075,263.018a10,10,0,1,1,10-10A10.013,10.013,0,0,1,208.075,263.018Zm0-16a6,6,0,1,0,6,6A6.006,6.006,0,0,0,208.075,247.018Z" transform="translate(-172.521 -231.69)" fill="currentColor"/>
                <path d="M224.075,264.977h-4a10,10,0,1,0-20,0h-4a14,14,0,1,1,28,0Z" transform="translate(-174.521 -223.733)" fill="currentColor"/>
                <path d="M216.986,267.452l-4.792-3.388a.922.922,0,0,0-1.082,0l-4.792,3.388-4.792-3.388a.915.915,0,0,0-1.082,0l-3.64,2.572L194.5,263.37l3.638-2.572a4.877,4.877,0,0,1,5.7,0l2.484,1.756,2.48-1.756a4.883,4.883,0,0,1,5.7,0l2.482,1.756,2.482-1.756a4.88,4.88,0,0,1,5.7,0l3.636,2.572-2.308,3.266-3.638-2.572a.922.922,0,0,0-1.082,0Z" transform="translate(-176.098 -214.83)" fill="currentColor"/>
            </g>
        </g>
    </symbol>
    <symbol id="arrow" viewBox="0 0 16 16">
        <rect width="16" height="16" fill="none"/>
        <g transform="translate(2 3)">
            <line x2="12" transform="translate(0 5)" fill="none" stroke="#fff" stroke-width="2"/>
            <path d="M0,0,4,5,0,10" transform="translate(8)" fill="none" stroke="#fff" stroke-width="2"/>
        </g>
    </symbol>
    <symbol id="album-maximal" viewBox="0 0 64 54">
        <g transform="translate(18 12.042)">
            <path d="M160.3,93.945a10,10,0,1,1,10-10A10,10,0,0,1,160.3,93.945Zm0-16a6,6,0,1,0,6,6A6,6,0,0,0,160.3,77.945Z" transform="translate(-146.3 -73.945)" fill="currentColor"/>
            <path d="M174.3,103.861h-4a10,10,0,1,0-20,0h-4a14,14,0,1,1,28,0Z" transform="translate(-146.3 -73.945)" fill="currentColor"/>
        </g>
        <path d="M189.391,67.544h-3.22V63.263a1.965,1.965,0,0,0-.569-1.4,1.944,1.944,0,0,0-1.387-.582l-2.869.237a63.341,63.341,0,0,0-19.329,4.743l-2.667,1.116-2.663-1.112a63.371,63.371,0,0,0-19.33-4.745l-2.706-.233a1.963,1.963,0,0,0-2.114,1.79l-.008,4.463h-3.22a1.967,1.967,0,0,0-1.959,1.973v43.8a1.966,1.966,0,0,0,1.959,1.971h60.082a1.966,1.966,0,0,0,1.959-1.971v-43.8A1.967,1.967,0,0,0,189.391,67.544Zm-30.041,43.79-1.959-.981-.63-.265a63.293,63.293,0,0,0-19.321-4.761l-.993-.084V65.4l.582.049a59.485,59.485,0,0,1,18.152,4.455l2.21.924,1.959,1.036,1.958-1.036,2.216-.926a59.451,59.451,0,0,1,18.147-4.453l.582-.049v39.835l-.855.07a63.763,63.763,0,0,0-19.339,4.733l-.752.314Zm11.264-.089c.4-.115.811-.223,1.293-.344.294-.075.591-.151.894-.223.422-.1.848-.195,1.277-.285l.182-.04c.245-.054.491-.109.74-.158.45-.088.9-.167,1.353-.247l.872-.153c.5-.08,1.007-.149,1.512-.215l.727-.1c.749-.091,1.5-.169,2.255-.233l2.652-.217a1.976,1.976,0,0,0,1.8-1.969V71.488h1.262V111.34H170.274Zm-36.293-2.222,2.789.24c.749.064,1.5.142,2.247.235.138.016.277.036.415.056l.346.049c.489.066.98.133,1.468.211.219.035.441.075.66.115l.218.039c.448.079.894.158,1.339.246q.411.084.823.175l.094.021c.43.094.86.188,1.286.289.306.074.618.153.926.232.421.109.843.221,1.263.338l.259.073H131.267V71.488h1.263v35.566A1.976,1.976,0,0,0,134.321,109.023Z" transform="translate(-127.35 -61.284)" fill="currentColor"/>
    </symbol>
    <symbol id="album-minimal" viewBox="0 0 64 54">
        <g id="Group_243" data-name="Group 243" transform="translate(-185.087 -67.01)">
            <g id="Group_224" data-name="Group 224" transform="translate(222.36 75.161)">
                <g id="Path_414" data-name="Path 414" transform="translate(1.955)">
                    <path id="Path_478" data-name="Path 478" d="M231.667,86.2a4.887,4.887,0,1,1,4.886-4.886A4.886,4.886,0,0,1,231.667,86.2Zm0-7.818a2.931,2.931,0,1,0,2.932,2.932A2.932,2.932,0,0,0,231.667,78.386Z" transform="translate(-225.781 -75.431)" fill="currentColor"/>
                    <path id="Path_479" data-name="Path 479" d="M231.668,87.2h0a5.887,5.887,0,1,1,5.887-5.887A5.894,5.894,0,0,1,231.667,87.2Zm0-7.818a1.931,1.931,0,1,0,1.932,1.931A1.934,1.934,0,0,0,231.667,79.386Z" transform="translate(-225.781 -75.431)" fill="currentColor"/>
                </g>
                <g id="Path_415" data-name="Path 415" transform="translate(0 7.777)">
                    <path id="Path_480" data-name="Path 480" d="M238.508,91.05h-1.955a4.886,4.886,0,1,0-9.772,0h-1.955a6.841,6.841,0,1,1,13.682,0Z" transform="translate(-223.826 -83.208)" fill="currentColor"/>
                    <path id="Path_481" data-name="Path 481" d="M239.508,92.05h-3.954v-1a3.886,3.886,0,1,0-7.773,0v1h-3.955v-1a7.841,7.841,0,1,1,15.682,0Z" transform="translate(-223.826 -83.208)" fill="currentColor"/>
                </g>
            </g>
            <g id="Group_225" data-name="Group 225" transform="translate(196.52 75.161)">
                <g id="Path_414-2" data-name="Path 414" transform="translate(1.954)">
                    <path id="Path_482" data-name="Path 482" d="M204.81,86.2a4.887,4.887,0,1,1,4.887-4.886A4.887,4.887,0,0,1,204.81,86.2Zm0-7.818a2.931,2.931,0,1,0,2.932,2.932A2.932,2.932,0,0,0,204.81,78.386Z" transform="translate(-198.924 -75.431)" fill="currentColor"/>
                    <path id="Path_483" data-name="Path 483" d="M204.812,87.2h0a5.887,5.887,0,1,1,5.885-5.887A5.893,5.893,0,0,1,204.811,87.2Zm0-7.818a1.931,1.931,0,1,0,1.931,1.931A1.933,1.933,0,0,0,204.811,79.386Z" transform="translate(-198.924 -75.431)" fill="currentColor"/>
                </g>
                <g id="Path_415-2" data-name="Path 415" transform="translate(0 7.777)">
                    <path id="Path_484" data-name="Path 484" d="M211.651,91.05H209.7a4.887,4.887,0,1,0-9.773,0h-1.955a6.841,6.841,0,1,1,13.682,0Z" transform="translate(-196.97 -83.208)" fill="currentColor"/>
                    <path id="Path_485" data-name="Path 485" d="M212.651,92.05H208.7v-1a3.886,3.886,0,1,0-7.772,0v1H196.97v-1a7.841,7.841,0,1,1,15.681,0Z" transform="translate(-196.97 -83.208)" fill="currentColor"/>
                </g>
            </g>
            <g id="Group_226" data-name="Group 226" transform="translate(222.36 92.776)">
                <g id="Path_414-3" data-name="Path 414" transform="translate(1.955)">
                    <path id="Path_486" data-name="Path 486" d="M231.667,104.4a4.887,4.887,0,1,1,4.886-4.886A4.885,4.885,0,0,1,231.667,104.4Zm0-7.818a2.932,2.932,0,1,0,2.932,2.932A2.932,2.932,0,0,0,231.667,96.584Z" transform="translate(-225.781 -93.629)" fill="currentColor"/>
                    <path id="Path_487" data-name="Path 487" d="M231.668,105.4h0a5.887,5.887,0,1,1,5.887-5.886A5.893,5.893,0,0,1,231.667,105.4Zm0-7.818a1.931,1.931,0,1,0,1.932,1.932A1.934,1.934,0,0,0,231.667,97.584Z" transform="translate(-225.781 -93.629)" fill="currentColor"/>
                </g>
                <g id="Path_415-3" data-name="Path 415" transform="translate(0 7.777)">
                    <path id="Path_488" data-name="Path 488" d="M238.508,109.248h-1.955a4.886,4.886,0,1,0-9.772,0h-1.955a6.841,6.841,0,1,1,13.682,0Z" transform="translate(-223.826 -101.406)" fill="currentColor"/>
                    <path id="Path_489" data-name="Path 489" d="M239.508,110.248h-3.954v-1a3.886,3.886,0,1,0-7.773,0v1h-3.955v-1a7.841,7.841,0,1,1,15.682,0Z" transform="translate(-223.826 -101.406)" fill="currentColor"/>
                </g>
            </g>
            <g id="Group_227" data-name="Group 227" transform="translate(196.52 92.776)">
                <g id="Path_414-4" data-name="Path 414" transform="translate(1.954)">
                    <path id="Path_490" data-name="Path 490" d="M204.81,104.4a4.887,4.887,0,1,1,4.887-4.886A4.886,4.886,0,0,1,204.81,104.4Zm0-7.818a2.932,2.932,0,1,0,2.932,2.932A2.932,2.932,0,0,0,204.81,96.584Z" transform="translate(-198.924 -93.629)" fill="currentColor"/>
                    <path id="Path_491" data-name="Path 491" d="M204.812,105.4h0a5.887,5.887,0,1,1,5.885-5.886A5.892,5.892,0,0,1,204.811,105.4Zm0-7.818a1.931,1.931,0,1,0,1.931,1.932A1.933,1.933,0,0,0,204.811,97.584Z" transform="translate(-198.924 -93.629)" fill="currentColor"/>
                </g>
                <g id="Path_415-4" data-name="Path 415" transform="translate(0 7.777)">
                    <path id="Path_492" data-name="Path 492" d="M211.651,109.248H209.7a4.887,4.887,0,1,0-9.773,0h-1.955a6.841,6.841,0,1,1,13.682,0Z" transform="translate(-196.97 -101.406)" fill="currentColor"/>
                    <path id="Path_493" data-name="Path 493" d="M212.651,110.248H208.7v-1a3.886,3.886,0,1,0-7.772,0v1H196.97v-1a7.841,7.841,0,1,1,15.681,0Z" transform="translate(-196.97 -101.406)" fill="currentColor"/>
                </g>
            </g>
            <g id="Group_228" data-name="Group 228" transform="translate(185.087 67.01)">
                <path id="Path_494" data-name="Path 494" d="M247.128,73.27h-3.22V68.989a1.966,1.966,0,0,0-.569-1.4,1.944,1.944,0,0,0-1.387-.582l-2.869.237a63.333,63.333,0,0,0-19.329,4.743l-2.667,1.116L214.424,72a63.363,63.363,0,0,0-19.329-4.745l-2.706-.233a1.961,1.961,0,0,0-2.114,1.79l-.009,4.463h-3.22a1.968,1.968,0,0,0-1.959,1.973v43.8a1.967,1.967,0,0,0,1.959,1.971h60.082a1.967,1.967,0,0,0,1.959-1.971v-43.8A1.968,1.968,0,0,0,247.128,73.27Zm-30.041,43.79-1.959-.98-.631-.266a63.285,63.285,0,0,0-19.32-4.761l-.993-.084V71.131l.583.049a59.483,59.483,0,0,1,18.152,4.455l2.21.924,1.959,1.036,1.958-1.036,2.215-.926a59.449,59.449,0,0,1,18.148-4.453l.582-.049v39.835l-.855.07a63.754,63.754,0,0,0-19.339,4.733l-.752.314Zm11.263-.089c.4-.115.811-.223,1.292-.344.3-.075.592-.151.9-.223.422-.1.848-.195,1.277-.285l.182-.04c.245-.054.491-.109.74-.158.45-.088.9-.167,1.352-.247l.873-.153c.5-.08,1.007-.149,1.511-.215l.727-.1q1.125-.136,2.256-.233l2.652-.217a1.976,1.976,0,0,0,1.8-1.969V77.214h1.262v39.852H228.011Zm-36.292-2.222,2.789.24c.749.064,1.5.142,2.247.235.138.016.277.036.414.056l.347.049c.489.066.98.133,1.467.211.22.035.442.075.661.115l.218.039c.448.079.894.158,1.339.246q.411.084.822.175l.1.021c.429.094.86.188,1.285.289.307.074.619.153.926.232.421.109.844.221,1.263.338l.259.073H189V77.214h1.262V112.78A1.977,1.977,0,0,0,192.059,114.749Z" transform="translate(-185.087 -67.01)" fill="currentColor"/>
            </g>
            <g id="Group_230" data-name="Group 230" transform="translate(215.087 80.272)">
                <g id="Group_229" data-name="Group 229">
                    <rect id="Rectangle_86" data-name="Rectangle 86" width="4" height="27.476" fill="currentColor"/>
                </g>
            </g>
        </g>
    </symbol>
    <symbol id="album-optimal" viewBox="0 0 64 54">
        <g id="Group_223" data-name="Group 223" transform="translate(-111.283 -67.01)">
            <g id="Group_218" data-name="Group 218" transform="translate(148.555 85.7)">
                <g id="Path_414" data-name="Path 414" transform="translate(1.956)">
                    <path id="Path_469" data-name="Path 469" d="M157.863,97.093a4.887,4.887,0,1,1,4.886-4.887A4.887,4.887,0,0,1,157.863,97.093Zm0-7.819a2.932,2.932,0,1,0,2.932,2.932A2.932,2.932,0,0,0,157.863,89.274Z" transform="translate(-151.977 -86.319)" fill="currentColor"/>
                    <path id="Path_470" data-name="Path 470" d="M157.864,98.093h0a5.887,5.887,0,1,1,5.886-5.887A5.893,5.893,0,0,1,157.863,98.093Zm0-7.819a1.932,1.932,0,1,0,1.933,1.932A1.934,1.934,0,0,0,157.862,90.274Z" transform="translate(-151.977 -86.319)" fill="currentColor"/>
                </g>
                <g id="Path_415" data-name="Path 415" transform="translate(0 7.779)">
                    <path id="Path_471" data-name="Path 471" d="M164.7,101.938h-1.955a4.886,4.886,0,0,0-9.773,0h-1.954a6.841,6.841,0,1,1,13.682,0Z" transform="translate(-150.021 -94.098)" fill="currentColor"/>
                    <path id="Path_472" data-name="Path 472" d="M165.7,102.938h-3.955v-1a3.886,3.886,0,1,0-7.772,0v1h-3.956v-1a7.841,7.841,0,0,1,15.683,0Z" transform="translate(-150.021 -94.098)" fill="currentColor"/>
                </g>
            </g>
            <g id="Group_219" data-name="Group 219" transform="translate(122.715 85.7)">
                <g id="Path_414-2" data-name="Path 414" transform="translate(1.955)">
                    <path id="Path_473" data-name="Path 473" d="M131.006,97.093a4.887,4.887,0,1,1,4.886-4.887A4.886,4.886,0,0,1,131.006,97.093Zm0-7.819a2.932,2.932,0,1,0,2.932,2.932A2.932,2.932,0,0,0,131.006,89.274Z" transform="translate(-125.12 -86.319)" fill="currentColor"/>
                    <path id="Path_474" data-name="Path 474" d="M131.007,98.093h0a5.887,5.887,0,1,1,5.887-5.887A5.893,5.893,0,0,1,131.006,98.093Zm0-7.819a1.932,1.932,0,1,0,1.932,1.932A1.934,1.934,0,0,0,131.005,90.274Z" transform="translate(-125.12 -86.319)" fill="currentColor"/>
                </g>
                <g id="Path_415-2" data-name="Path 415" transform="translate(0 7.779)">
                    <path id="Path_475" data-name="Path 475" d="M137.847,101.938h-1.955a4.886,4.886,0,1,0-9.772,0h-1.955a6.841,6.841,0,1,1,13.682,0Z" transform="translate(-123.165 -94.098)" fill="currentColor"/>
                    <path id="Path_476" data-name="Path 476" d="M138.847,102.938h-3.954v-1a3.887,3.887,0,0,0-7.773,0v1h-3.955v-1a7.841,7.841,0,0,1,15.682,0Z" transform="translate(-123.165 -94.098)" fill="currentColor"/>
                </g>
            </g>
            <g id="Group_220" data-name="Group 220" transform="translate(111.283 67.01)">
                <path id="Path_477" data-name="Path 477" d="M173.325,73.27H170.1V68.989a1.966,1.966,0,0,0-.569-1.4,1.94,1.94,0,0,0-1.386-.582l-2.869.237a63.34,63.34,0,0,0-19.33,4.743l-2.667,1.116L140.62,72a63.372,63.372,0,0,0-19.329-4.745l-2.706-.233a1.963,1.963,0,0,0-2.115,1.79l-.008,4.463h-3.22a1.968,1.968,0,0,0-1.959,1.973v43.8a1.967,1.967,0,0,0,1.959,1.971h60.083a1.966,1.966,0,0,0,1.958-1.971v-43.8A1.967,1.967,0,0,0,173.325,73.27Zm-30.042,43.79-1.958-.98-.631-.266a63.294,63.294,0,0,0-19.32-4.761l-.993-.084V71.131l.583.049a59.485,59.485,0,0,1,18.151,4.455l2.211.924,1.958,1.036,1.959-1.036,2.215-.926a59.45,59.45,0,0,1,18.148-4.453l.581-.049v39.835l-.855.07a63.77,63.77,0,0,0-19.339,4.733l-.751.314Zm11.265-.089c.4-.115.811-.223,1.292-.344.3-.075.591-.151.9-.223.421-.1.848-.195,1.276-.285l.183-.04c.245-.054.491-.109.739-.158.45-.088.9-.167,1.353-.247l.872-.153c.5-.08,1.008-.149,1.512-.215l.727-.1q1.125-.136,2.255-.233l2.653-.217a1.975,1.975,0,0,0,1.8-1.969V77.214h1.262v39.852H154.207Zm-36.293-2.222,2.789.24q1.122.1,2.246.235c.139.016.277.036.415.056l.346.049c.489.066.98.133,1.468.211.22.035.441.075.661.115l.217.039c.448.079.894.158,1.339.246q.412.084.823.175l.1.021c.429.094.859.188,1.285.289.306.074.619.153.926.232.421.109.843.221,1.263.338l.258.073H115.2V77.214h1.262V112.78A1.977,1.977,0,0,0,118.255,114.749Z" transform="translate(-111.283 -67.01)" fill="currentColor"/>
            </g>
            <g id="Group_222" data-name="Group 222" transform="translate(141.283 80.272)">
                <g id="Group_221" data-name="Group 221">
                    <rect id="Rectangle_85" data-name="Rectangle 85" width="4" height="27.476" fill="currentColor"/>
                </g>
            </g>
        </g>
    </symbol>
    <symbol id="outer-link" viewBox="0 0 16 16">
        <rect width="16" height="16" fill="none"/>
        <g transform="translate(-1083 -34)">
            <g transform="translate(1086 38)" fill="#fff" stroke="#b8b8b8" stroke-width="1.5">
                <rect width="9" height="9" rx="2" stroke="none"/>
                <rect x="0.75" y="0.75" width="7.5" height="7.5" rx="1.25" fill="none"/>
            </g>
            <rect width="4" height="5" transform="translate(1091 37)" fill="#fff"/>
            <path d="M0,5,5,0" transform="translate(1090.5 37.5)" fill="none" stroke="#b8b8b8" stroke-width="1.5"/>
            <path d="M0,0H3V3" transform="translate(1092.5 37.5)" fill="none" stroke="#b8b8b8" stroke-width="1.5"/>
        </g>
    </symbol>
</svg>
