<svg xmlns="http://www.w3.org/2000/svg" width="48" height="49.427" viewBox="0 0 48 49.427">
  <g id="Group_154" data-name="Group 154" transform="translate(0 0.466)">
    <g id="Group_153" data-name="Group 153" transform="translate(3.041 0.961)">
      <g id="Group_152" data-name="Group 152">
        <g id="Group_151" data-name="Group 151">
          <path id="Path_460" data-name="Path 460" d="M226.978,224.675,207.8,216.161a1.871,1.871,0,0,0-1.525,0l-18.993,8.515a1.87,1.87,0,0,0-1.106,1.708v14.783a24.1,24.1,0,0,0,6.058,15.669,21.882,21.882,0,0,0,6.636,5.171A18.341,18.341,0,0,0,207.131,264a18.971,18.971,0,0,0,11.207-3.727,1.871,1.871,0,0,0-2.2-3.026,15.257,15.257,0,0,1-9,3.011c-9.01,0-17.216-9.1-17.216-19.088V227.6l17.127-7.678,17.305,7.682v13.566a19.817,19.817,0,0,1-2.862,10.085,1.871,1.871,0,1,0,3.217,1.913,23.554,23.554,0,0,0,3.388-12V226.386A1.871,1.871,0,0,0,226.978,224.675Z" transform="translate(-186.172 -216)" fill="#3bb781"/>
          <path id="Path_461" data-name="Path 461" d="M213.874,229.331l-9.223,12.883a1.068,1.068,0,0,1-1.538.08l-5.962-5.818a1.872,1.872,0,0,0-2.614,2.68l5.971,5.827.017.016a4.822,4.822,0,0,0,3.32,1.327q.158,0,.317-.011a4.828,4.828,0,0,0,3.431-1.787c.022-.028.043-.055.062-.083l9.262-12.937a1.871,1.871,0,1,0-3.043-2.178Z" transform="translate(-184.612 -213.49)" fill="#3bb781"/>
        </g>
      </g>
    </g>
    <rect id="Rectangle_59" data-name="Rectangle 59" width="48" height="48" transform="translate(0 -0.466)" fill="none"/>
  </g>
</svg>
