<svg xmlns="http://www.w3.org/2000/svg" width="44" height="51.021" viewBox="0 0 44 51.021">
  <g id="Group_242" data-name="Group 242" transform="translate(-2346 -6876.98)">
    <g id="hobbies-and-free-time" transform="translate(2347 6878)">
      <g id="Group_237" data-name="Group 237" transform="translate(0 13.971)">
        <path id="Path_495" data-name="Path 495" d="M14.1,17.079H4.024A3.027,3.027,0,0,1,1,14.056V10.024A3.027,3.027,0,0,1,4.024,7H14.1a1.008,1.008,0,0,1,1.008,1.008v8.063A1.008,1.008,0,0,1,14.1,17.079ZM4.024,9.016a1.01,1.01,0,0,0-1.008,1.008v4.032a1.01,1.01,0,0,0,1.008,1.008H13.1V9.016Z" transform="translate(-1 -7)" fill="#3bb781" stroke="#3bb781" stroke-width="2"/>
      </g>
      <g id="Group_238" data-name="Group 238" transform="translate(11.761 0.002)">
        <path id="Path_496" data-name="Path 496" d="M30.183,38.3a1.014,1.014,0,0,1-.542-.157L7.466,24.032a1.007,1.007,0,0,1,1.083-1.7L29.175,35.456V2.844L8.551,15.969a1.007,1.007,0,0,1-1.083-1.7L29.643.158a1.006,1.006,0,0,1,1.548.849V37.292A1.008,1.008,0,0,1,30.183,38.3Z" transform="translate(-6.999 -0.001)" fill="#3bb781" stroke="#3bb781" stroke-width="2"/>
      </g>
      <g id="Group_239" data-name="Group 239" transform="matrix(1, -0.017, 0.017, 1, 5.854, 22.813)">
        <path id="Path_497" data-name="Path 497" d="M5.008,33.174A1.008,1.008,0,0,1,4,32.167V12.008a1.008,1.008,0,0,1,2.016,0V32.167A1.008,1.008,0,0,1,5.008,33.174Z" transform="translate(-4 -11)" fill="#3bb781" stroke="#3bb781" stroke-width="2"/>
      </g>
      <g id="Group_240" data-name="Group 240" transform="translate(2.017 42.952)">
        <path id="Path_498" data-name="Path 498" d="M11.071,27.048a1.012,1.012,0,0,1-.714-.294l-3.318-3.32L3.721,26.751A1.008,1.008,0,1,1,2.3,25.326l4.032-4.032a1.009,1.009,0,0,1,1.425,0l4.032,4.032a1.009,1.009,0,0,1-.714,1.722Z" transform="translate(-2.001 -21)" fill="#3bb781" stroke="#3bb781" stroke-width="2"/>
      </g>
      <g id="Group_241" data-name="Group 241" transform="translate(33.937)">
        <path id="Path_499" data-name="Path 499" d="M23.04,38.3H19.008a1.008,1.008,0,0,1,0-2.016H23.04a1.01,1.01,0,0,0,1.008-1.008V3.024A1.01,1.01,0,0,0,23.04,2.016H19.008a1.008,1.008,0,0,1,0-2.016H23.04a3.027,3.027,0,0,1,3.024,3.024V35.278A3.027,3.027,0,0,1,23.04,38.3Z" transform="translate(-18)" fill="#3bb781" stroke="#3bb781" stroke-width="2"/>
      </g>
    </g>
  </g>
</svg>
