<svg xmlns="http://www.w3.org/2000/svg" width="48" height="48.49" viewBox="0 0 48 48.49">
  <g id="Group_158" data-name="Group 158" transform="translate(0 -0.455)">
    <g id="Group_157" data-name="Group 157" transform="translate(0 0.944)">
      <g id="Group_156" data-name="Group 156">
        <g id="Group_155" data-name="Group 155">
          <path id="Path_462" data-name="Path 462" d="M245.712,260.742a1.875,1.875,0,1,0-3.477,1.4l2.208,5.463-6.558-2.891a1.87,1.87,0,0,0-1.492-.009,18.089,18.089,0,0,1-7.137,1.441c-10.038,0-16.781-7.86-16.781-15.2,0-8.382,7.528-15.2,16.781-15.2s16.781,6.818,16.781,15.2a15.29,15.29,0,0,1-.167,2.148,1.875,1.875,0,0,0,3.709.553,18.936,18.936,0,0,0,.208-2.7,18.122,18.122,0,0,0-6.073-13.457,21.774,21.774,0,0,0-28.916,0,18.22,18.22,0,0,0-6,11.843,15.16,15.16,0,0,0-7.012,12.619,14.547,14.547,0,0,0,2.876,8.692l-2.739,6.775A1.875,1.875,0,0,0,203.663,280a1.9,1.9,0,0,0,.756-.16l7.9-3.481a17.828,17.828,0,0,0,6.253,1.114c.047,0,.093,0,.139-.007a17.749,17.749,0,0,0,8.822-2.391,16.141,16.141,0,0,0,5.672-5.524,21.534,21.534,0,0,0,3.895-1.083l10.06,4.435a1.875,1.875,0,0,0,2.494-2.419Zm-27.143,12.977c-.026,0-.051,0-.076,0a14.072,14.072,0,0,1-5.479-1.12,1.87,1.87,0,0,0-1.492.009l-4.391,1.935,1.417-3.5a1.873,1.873,0,0,0-.312-1.919,10.946,10.946,0,0,1-2.7-7.168A11.158,11.158,0,0,1,209,253.968,18.928,18.928,0,0,0,214.55,264.1a20.955,20.955,0,0,0,13.641,5.772A13.783,13.783,0,0,1,218.569,273.719Z" transform="translate(-201.787 -232.001)" fill="#3bb781"/>
          <circle id="Ellipse_22" data-name="Ellipse 22" cx="1.875" cy="1.875" r="1.875" transform="translate(25.5 17.156)" fill="#3bb781"/>
          <circle id="Ellipse_23" data-name="Ellipse 23" cx="1.875" cy="1.875" r="1.875" transform="translate(33 17.156)" fill="#3bb781"/>
          <circle id="Ellipse_24" data-name="Ellipse 24" cx="1.875" cy="1.875" r="1.875" transform="translate(18 17.156)" fill="#3bb781"/>
        </g>
      </g>
    </g>
    <rect id="Rectangle_60" data-name="Rectangle 60" width="48" height="48" transform="translate(0 0.455)" fill="none"/>
  </g>
</svg>
