<svg xmlns="http://www.w3.org/2000/svg" width="33.747" height="48" viewBox="0 0 33.747 48">
  <path id="Path_464" data-name="Path 464" d="M269.1,247.566v-5.3a1.941,1.941,0,0,0-1.938-1.939h-1.93a4.416,4.416,0,0,1-4.181-2.993l-.385-1.13a.666.666,0,0,0-.632-.452h-8.12a.669.669,0,0,0-.627.44l-.44,1.219a4.428,4.428,0,0,1-4.154,2.916h-1.9a1.941,1.941,0,0,0-1.938,1.939v14.617a1.94,1.94,0,0,0,1.938,1.938H255.88c.033,0,.067,0,.1,0s.069,0,.1,0h11.082a1.888,1.888,0,0,0,1.938-1.879,1.875,1.875,0,1,1,3.75,0,5.559,5.559,0,0,1-1.681,4.006,5.689,5.689,0,0,1-4.007,1.623h-7.632l9.9,14.5a1.875,1.875,0,1,1-3.1,2.114l-8.482-12.422v11.365a1.875,1.875,0,1,1-3.749,0V266.76l-8.482,12.422a1.875,1.875,0,0,1-3.1-2.114l9.9-14.5h-7.632a5.7,5.7,0,0,1-5.688-5.688V242.264a5.7,5.7,0,0,1,5.688-5.688h1.9a.668.668,0,0,0,.627-.441l.44-1.218A4.429,4.429,0,0,1,251.918,232h8.12a4.416,4.416,0,0,1,4.182,2.994l.384,1.13a.669.669,0,0,0,.632.452h1.93a5.7,5.7,0,0,1,5.688,5.688v5.3a1.875,1.875,0,0,1-3.75,0ZM263.48,248.6a7.5,7.5,0,1,1-7.5-7.5A7.508,7.508,0,0,1,263.48,248.6Zm-3.75,0a3.75,3.75,0,1,0-3.75,3.749A3.754,3.754,0,0,0,259.73,248.6Z" transform="translate(-239.107 -232)" fill="#3bb781"/>
</svg>
